<svg xmlns="http://www.w3.org/2000/svg" width="2880" height="1620" viewBox="0 0 2880 1620">

  <defs>
    <radialGradient id="bg" cx="50%" cy="50%" r="75%">
      <stop offset="0%" stop-color="#14151a"/>
      <stop offset="55%" stop-color="#0a0a0c"/>
      <stop offset="100%" stop-color="#000000"/>
    </radialGradient>

    <radialGradient id="coreGlow" cx="50%" cy="50%" r="50%">
      <stop offset="0%" stop-color="#f0c674" stop-opacity="0.38"/>
      <stop offset="45%" stop-color="#f0c674" stop-opacity="0.09"/>
      <stop offset="100%" stop-color="#f0c674" stop-opacity="0"/>
    </radialGradient>

    <linearGradient id="ringGrad" x1="0%" y1="0%" x2="100%" y2="100%">
      <stop offset="0%" stop-color="#f7dc9c"/>
      <stop offset="50%" stop-color="#f0c674"/>
      <stop offset="100%" stop-color="#c99b45"/>
    </linearGradient>

    <filter id="softGlow" x="-60%" y="-60%" width="220%" height="220%">
      <feGaussianBlur stdDeviation="8" result="blur"/>
      <feMerge>
        <feMergeNode in="blur"/>
        <feMergeNode in="SourceGraphic"/>
      </feMerge>
    </filter>

    <filter id="wideGlow" x="-100%" y="-100%" width="300%" height="300%">
      <feGaussianBlur stdDeviation="20"/>
    </filter>

    <filter id="traceGlow" x="-50%" y="-50%" width="200%" height="200%">
      <feGaussianBlur stdDeviation="2.2"/>
    </filter>
  </defs>

<rect width="2880" height="1620" fill="url(#bg)"/>
<g stroke="#f0c674" stroke-width="1" fill="none" opacity="0.035">
<polygon points="52.0,-30.0 52.0,30.0 0.0,60.0 -52.0,30.0 -52.0,-30.0 -0.0,-60.0"/>
<polygon points="155.9,-30.0 155.9,30.0 103.9,60.0 52.0,30.0 52.0,-30.0 103.9,-60.0"/>
<polygon points="259.8,-30.0 259.8,30.0 207.8,60.0 155.9,30.0 155.9,-30.0 207.8,-60.0"/>
<polygon points="363.7,-30.0 363.7,30.0 311.8,60.0 259.8,30.0 259.8,-30.0 311.8,-60.0"/>
<polygon points="467.7,-30.0 467.7,30.0 415.7,60.0 363.7,30.0 363.7,-30.0 415.7,-60.0"/>
<polygon points="571.6,-30.0 571.6,30.0 519.6,60.0 467.7,30.0 467.7,-30.0 519.6,-60.0"/>
<polygon points="675.5,-30.0 675.5,30.0 623.5,60.0 571.6,30.0 571.6,-30.0 623.5,-60.0"/>
<polygon points="779.4,-30.0 779.4,30.0 727.5,60.0 675.5,30.0 675.5,-30.0 727.5,-60.0"/>
<polygon points="883.3,-30.0 883.3,30.0 831.4,60.0 779.4,30.0 779.4,-30.0 831.4,-60.0"/>
<polygon points="987.3,-30.0 987.3,30.0 935.3,60.0 883.3,30.0 883.3,-30.0 935.3,-60.0"/>
<polygon points="1091.2,-30.0 1091.2,30.0 1039.2,60.0 987.3,30.0 987.3,-30.0 1039.2,-60.0"/>
<polygon points="1195.1,-30.0 1195.1,30.0 1143.2,60.0 1091.2,30.0 1091.2,-30.0 1143.2,-60.0"/>
<polygon points="1299.0,-30.0 1299.0,30.0 1247.1,60.0 1195.1,30.0 1195.1,-30.0 1247.1,-60.0"/>
<polygon points="1403.0,-30.0 1403.0,30.0 1351.0,60.0 1299.0,30.0 1299.0,-30.0 1351.0,-60.0"/>
<polygon points="1506.9,-30.0 1506.9,30.0 1454.9,60.0 1403.0,30.0 1403.0,-30.0 1454.9,-60.0"/>
<polygon points="1610.8,-30.0 1610.8,30.0 1558.8,60.0 1506.9,30.0 1506.9,-30.0 1558.8,-60.0"/>
<polygon points="1714.7,-30.0 1714.7,30.0 1662.8,60.0 1610.8,30.0 1610.8,-30.0 1662.8,-60.0"/>
<polygon points="1818.7,-30.0 1818.7,30.0 1766.7,60.0 1714.7,30.0 1714.7,-30.0 1766.7,-60.0"/>
<polygon points="1922.6,-30.0 1922.6,30.0 1870.6,60.0 1818.7,30.0 1818.7,-30.0 1870.6,-60.0"/>
<polygon points="2026.5,-30.0 2026.5,30.0 1974.5,60.0 1922.6,30.0 1922.6,-30.0 1974.5,-60.0"/>
<polygon points="2130.4,-30.0 2130.4,30.0 2078.5,60.0 2026.5,30.0 2026.5,-30.0 2078.5,-60.0"/>
<polygon points="2234.3,-30.0 2234.3,30.0 2182.4,60.0 2130.4,30.0 2130.4,-30.0 2182.4,-60.0"/>
<polygon points="2338.3,-30.0 2338.3,30.0 2286.3,60.0 2234.3,30.0 2234.3,-30.0 2286.3,-60.0"/>
<polygon points="2442.2,-30.0 2442.2,30.0 2390.2,60.0 2338.3,30.0 2338.3,-30.0 2390.2,-60.0"/>
<polygon points="2546.1,-30.0 2546.1,30.0 2494.2,60.0 2442.2,30.0 2442.2,-30.0 2494.2,-60.0"/>
<polygon points="2650.0,-30.0 2650.0,30.0 2598.1,60.0 2546.1,30.0 2546.1,-30.0 2598.1,-60.0"/>
<polygon points="2754.0,-30.0 2754.0,30.0 2702.0,60.0 2650.0,30.0 2650.0,-30.0 2702.0,-60.0"/>
<polygon points="2857.9,-30.0 2857.9,30.0 2805.9,60.0 2754.0,30.0 2754.0,-30.0 2805.9,-60.0"/>
<polygon points="2961.8,-30.0 2961.8,30.0 2909.8,60.0 2857.9,30.0 2857.9,-30.0 2909.8,-60.0"/>
<polygon points="103.9,60.0 103.9,120.0 52.0,150.0 -0.0,120.0 0.0,60.0 52.0,30.0"/>
<polygon points="207.8,60.0 207.8,120.0 155.9,150.0 103.9,120.0 103.9,60.0 155.9,30.0"/>
<polygon points="311.8,60.0 311.8,120.0 259.8,150.0 207.8,120.0 207.8,60.0 259.8,30.0"/>
<polygon points="415.7,60.0 415.7,120.0 363.7,150.0 311.8,120.0 311.8,60.0 363.7,30.0"/>
<polygon points="519.6,60.0 519.6,120.0 467.7,150.0 415.7,120.0 415.7,60.0 467.7,30.0"/>
<polygon points="623.5,60.0 623.5,120.0 571.6,150.0 519.6,120.0 519.6,60.0 571.6,30.0"/>
<polygon points="727.5,60.0 727.5,120.0 675.5,150.0 623.5,120.0 623.5,60.0 675.5,30.0"/>
<polygon points="831.4,60.0 831.4,120.0 779.4,150.0 727.5,120.0 727.5,60.0 779.4,30.0"/>
<polygon points="935.3,60.0 935.3,120.0 883.3,150.0 831.4,120.0 831.4,60.0 883.3,30.0"/>
<polygon points="1039.2,60.0 1039.2,120.0 987.3,150.0 935.3,120.0 935.3,60.0 987.3,30.0"/>
<polygon points="1143.2,60.0 1143.2,120.0 1091.2,150.0 1039.2,120.0 1039.2,60.0 1091.2,30.0"/>
<polygon points="1247.1,60.0 1247.1,120.0 1195.1,150.0 1143.2,120.0 1143.2,60.0 1195.1,30.0"/>
<polygon points="1351.0,60.0 1351.0,120.0 1299.0,150.0 1247.1,120.0 1247.1,60.0 1299.0,30.0"/>
<polygon points="1454.9,60.0 1454.9,120.0 1403.0,150.0 1351.0,120.0 1351.0,60.0 1403.0,30.0"/>
<polygon points="1558.8,60.0 1558.8,120.0 1506.9,150.0 1454.9,120.0 1454.9,60.0 1506.9,30.0"/>
<polygon points="1662.8,60.0 1662.8,120.0 1610.8,150.0 1558.8,120.0 1558.8,60.0 1610.8,30.0"/>
<polygon points="1766.7,60.0 1766.7,120.0 1714.7,150.0 1662.8,120.0 1662.8,60.0 1714.7,30.0"/>
<polygon points="1870.6,60.0 1870.6,120.0 1818.7,150.0 1766.7,120.0 1766.7,60.0 1818.7,30.0"/>
<polygon points="1974.5,60.0 1974.5,120.0 1922.6,150.0 1870.6,120.0 1870.6,60.0 1922.6,30.0"/>
<polygon points="2078.5,60.0 2078.5,120.0 2026.5,150.0 1974.5,120.0 1974.5,60.0 2026.5,30.0"/>
<polygon points="2182.4,60.0 2182.4,120.0 2130.4,150.0 2078.5,120.0 2078.5,60.0 2130.4,30.0"/>
<polygon points="2286.3,60.0 2286.3,120.0 2234.3,150.0 2182.4,120.0 2182.4,60.0 2234.3,30.0"/>
<polygon points="2390.2,60.0 2390.2,120.0 2338.3,150.0 2286.3,120.0 2286.3,60.0 2338.3,30.0"/>
<polygon points="2494.2,60.0 2494.2,120.0 2442.2,150.0 2390.2,120.0 2390.2,60.0 2442.2,30.0"/>
<polygon points="2598.1,60.0 2598.1,120.0 2546.1,150.0 2494.2,120.0 2494.2,60.0 2546.1,30.0"/>
<polygon points="2702.0,60.0 2702.0,120.0 2650.0,150.0 2598.1,120.0 2598.1,60.0 2650.0,30.0"/>
<polygon points="2805.9,60.0 2805.9,120.0 2754.0,150.0 2702.0,120.0 2702.0,60.0 2754.0,30.0"/>
<polygon points="2909.8,60.0 2909.8,120.0 2857.9,150.0 2805.9,120.0 2805.9,60.0 2857.9,30.0"/>
<polygon points="3013.8,60.0 3013.8,120.0 2961.8,150.0 2909.8,120.0 2909.8,60.0 2961.8,30.0"/>
<polygon points="52.0,150.0 52.0,210.0 0.0,240.0 -52.0,210.0 -52.0,150.0 -0.0,120.0"/>
<polygon points="155.9,150.0 155.9,210.0 103.9,240.0 52.0,210.0 52.0,150.0 103.9,120.0"/>
<polygon points="259.8,150.0 259.8,210.0 207.8,240.0 155.9,210.0 155.9,150.0 207.8,120.0"/>
<polygon points="363.7,150.0 363.7,210.0 311.8,240.0 259.8,210.0 259.8,150.0 311.8,120.0"/>
<polygon points="467.7,150.0 467.7,210.0 415.7,240.0 363.7,210.0 363.7,150.0 415.7,120.0"/>
<polygon points="571.6,150.0 571.6,210.0 519.6,240.0 467.7,210.0 467.7,150.0 519.6,120.0"/>
<polygon points="675.5,150.0 675.5,210.0 623.5,240.0 571.6,210.0 571.6,150.0 623.5,120.0"/>
<polygon points="779.4,150.0 779.4,210.0 727.5,240.0 675.5,210.0 675.5,150.0 727.5,120.0"/>
<polygon points="883.3,150.0 883.3,210.0 831.4,240.0 779.4,210.0 779.4,150.0 831.4,120.0"/>
<polygon points="987.3,150.0 987.3,210.0 935.3,240.0 883.3,210.0 883.3,150.0 935.3,120.0"/>
<polygon points="1091.2,150.0 1091.2,210.0 1039.2,240.0 987.3,210.0 987.3,150.0 1039.2,120.0"/>
<polygon points="1195.1,150.0 1195.1,210.0 1143.2,240.0 1091.2,210.0 1091.2,150.0 1143.2,120.0"/>
<polygon points="1299.0,150.0 1299.0,210.0 1247.1,240.0 1195.1,210.0 1195.1,150.0 1247.1,120.0"/>
<polygon points="1403.0,150.0 1403.0,210.0 1351.0,240.0 1299.0,210.0 1299.0,150.0 1351.0,120.0"/>
<polygon points="1506.9,150.0 1506.9,210.0 1454.9,240.0 1403.0,210.0 1403.0,150.0 1454.9,120.0"/>
<polygon points="1610.8,150.0 1610.8,210.0 1558.8,240.0 1506.9,210.0 1506.9,150.0 1558.8,120.0"/>
<polygon points="1714.7,150.0 1714.7,210.0 1662.8,240.0 1610.8,210.0 1610.8,150.0 1662.8,120.0"/>
<polygon points="1818.7,150.0 1818.7,210.0 1766.7,240.0 1714.7,210.0 1714.7,150.0 1766.7,120.0"/>
<polygon points="1922.6,150.0 1922.6,210.0 1870.6,240.0 1818.7,210.0 1818.7,150.0 1870.6,120.0"/>
<polygon points="2026.5,150.0 2026.5,210.0 1974.5,240.0 1922.6,210.0 1922.6,150.0 1974.5,120.0"/>
<polygon points="2130.4,150.0 2130.4,210.0 2078.5,240.0 2026.5,210.0 2026.5,150.0 2078.5,120.0"/>
<polygon points="2234.3,150.0 2234.3,210.0 2182.4,240.0 2130.4,210.0 2130.4,150.0 2182.4,120.0"/>
<polygon points="2338.3,150.0 2338.3,210.0 2286.3,240.0 2234.3,210.0 2234.3,150.0 2286.3,120.0"/>
<polygon points="2442.2,150.0 2442.2,210.0 2390.2,240.0 2338.3,210.0 2338.3,150.0 2390.2,120.0"/>
<polygon points="2546.1,150.0 2546.1,210.0 2494.2,240.0 2442.2,210.0 2442.2,150.0 2494.2,120.0"/>
<polygon points="2650.0,150.0 2650.0,210.0 2598.1,240.0 2546.1,210.0 2546.1,150.0 2598.1,120.0"/>
<polygon points="2754.0,150.0 2754.0,210.0 2702.0,240.0 2650.0,210.0 2650.0,150.0 2702.0,120.0"/>
<polygon points="2857.9,150.0 2857.9,210.0 2805.9,240.0 2754.0,210.0 2754.0,150.0 2805.9,120.0"/>
<polygon points="2961.8,150.0 2961.8,210.0 2909.8,240.0 2857.9,210.0 2857.9,150.0 2909.8,120.0"/>
<polygon points="103.9,240.0 103.9,300.0 52.0,330.0 -0.0,300.0 0.0,240.0 52.0,210.0"/>
<polygon points="207.8,240.0 207.8,300.0 155.9,330.0 103.9,300.0 103.9,240.0 155.9,210.0"/>
<polygon points="311.8,240.0 311.8,300.0 259.8,330.0 207.8,300.0 207.8,240.0 259.8,210.0"/>
<polygon points="415.7,240.0 415.7,300.0 363.7,330.0 311.8,300.0 311.8,240.0 363.7,210.0"/>
<polygon points="519.6,240.0 519.6,300.0 467.7,330.0 415.7,300.0 415.7,240.0 467.7,210.0"/>
<polygon points="623.5,240.0 623.5,300.0 571.6,330.0 519.6,300.0 519.6,240.0 571.6,210.0"/>
<polygon points="727.5,240.0 727.5,300.0 675.5,330.0 623.5,300.0 623.5,240.0 675.5,210.0"/>
<polygon points="831.4,240.0 831.4,300.0 779.4,330.0 727.5,300.0 727.5,240.0 779.4,210.0"/>
<polygon points="935.3,240.0 935.3,300.0 883.3,330.0 831.4,300.0 831.4,240.0 883.3,210.0"/>
<polygon points="1039.2,240.0 1039.2,300.0 987.3,330.0 935.3,300.0 935.3,240.0 987.3,210.0"/>
<polygon points="1143.2,240.0 1143.2,300.0 1091.2,330.0 1039.2,300.0 1039.2,240.0 1091.2,210.0"/>
<polygon points="1247.1,240.0 1247.1,300.0 1195.1,330.0 1143.2,300.0 1143.2,240.0 1195.1,210.0"/>
<polygon points="1351.0,240.0 1351.0,300.0 1299.0,330.0 1247.1,300.0 1247.1,240.0 1299.0,210.0"/>
<polygon points="1454.9,240.0 1454.9,300.0 1403.0,330.0 1351.0,300.0 1351.0,240.0 1403.0,210.0"/>
<polygon points="1558.8,240.0 1558.8,300.0 1506.9,330.0 1454.9,300.0 1454.9,240.0 1506.9,210.0"/>
<polygon points="1662.8,240.0 1662.8,300.0 1610.8,330.0 1558.8,300.0 1558.8,240.0 1610.8,210.0"/>
<polygon points="1766.7,240.0 1766.7,300.0 1714.7,330.0 1662.8,300.0 1662.8,240.0 1714.7,210.0"/>
<polygon points="1870.6,240.0 1870.6,300.0 1818.7,330.0 1766.7,300.0 1766.7,240.0 1818.7,210.0"/>
<polygon points="1974.5,240.0 1974.5,300.0 1922.6,330.0 1870.6,300.0 1870.6,240.0 1922.6,210.0"/>
<polygon points="2078.5,240.0 2078.5,300.0 2026.5,330.0 1974.5,300.0 1974.5,240.0 2026.5,210.0"/>
<polygon points="2182.4,240.0 2182.4,300.0 2130.4,330.0 2078.5,300.0 2078.5,240.0 2130.4,210.0"/>
<polygon points="2286.3,240.0 2286.3,300.0 2234.3,330.0 2182.4,300.0 2182.4,240.0 2234.3,210.0"/>
<polygon points="2390.2,240.0 2390.2,300.0 2338.3,330.0 2286.3,300.0 2286.3,240.0 2338.3,210.0"/>
<polygon points="2494.2,240.0 2494.2,300.0 2442.2,330.0 2390.2,300.0 2390.2,240.0 2442.2,210.0"/>
<polygon points="2598.1,240.0 2598.1,300.0 2546.1,330.0 2494.2,300.0 2494.2,240.0 2546.1,210.0"/>
<polygon points="2702.0,240.0 2702.0,300.0 2650.0,330.0 2598.1,300.0 2598.1,240.0 2650.0,210.0"/>
<polygon points="2805.9,240.0 2805.9,300.0 2754.0,330.0 2702.0,300.0 2702.0,240.0 2754.0,210.0"/>
<polygon points="2909.8,240.0 2909.8,300.0 2857.9,330.0 2805.9,300.0 2805.9,240.0 2857.9,210.0"/>
<polygon points="3013.8,240.0 3013.8,300.0 2961.8,330.0 2909.8,300.0 2909.8,240.0 2961.8,210.0"/>
<polygon points="52.0,330.0 52.0,390.0 0.0,420.0 -52.0,390.0 -52.0,330.0 -0.0,300.0"/>
<polygon points="155.9,330.0 155.9,390.0 103.9,420.0 52.0,390.0 52.0,330.0 103.9,300.0"/>
<polygon points="259.8,330.0 259.8,390.0 207.8,420.0 155.9,390.0 155.9,330.0 207.8,300.0"/>
<polygon points="363.7,330.0 363.7,390.0 311.8,420.0 259.8,390.0 259.8,330.0 311.8,300.0"/>
<polygon points="467.7,330.0 467.7,390.0 415.7,420.0 363.7,390.0 363.7,330.0 415.7,300.0"/>
<polygon points="571.6,330.0 571.6,390.0 519.6,420.0 467.7,390.0 467.7,330.0 519.6,300.0"/>
<polygon points="675.5,330.0 675.5,390.0 623.5,420.0 571.6,390.0 571.6,330.0 623.5,300.0"/>
<polygon points="779.4,330.0 779.4,390.0 727.5,420.0 675.5,390.0 675.5,330.0 727.5,300.0"/>
<polygon points="883.3,330.0 883.3,390.0 831.4,420.0 779.4,390.0 779.4,330.0 831.4,300.0"/>
<polygon points="987.3,330.0 987.3,390.0 935.3,420.0 883.3,390.0 883.3,330.0 935.3,300.0"/>
<polygon points="1091.2,330.0 1091.2,390.0 1039.2,420.0 987.3,390.0 987.3,330.0 1039.2,300.0"/>
<polygon points="1195.1,330.0 1195.1,390.0 1143.2,420.0 1091.2,390.0 1091.2,330.0 1143.2,300.0"/>
<polygon points="1299.0,330.0 1299.0,390.0 1247.1,420.0 1195.1,390.0 1195.1,330.0 1247.1,300.0"/>
<polygon points="1403.0,330.0 1403.0,390.0 1351.0,420.0 1299.0,390.0 1299.0,330.0 1351.0,300.0"/>
<polygon points="1506.9,330.0 1506.9,390.0 1454.9,420.0 1403.0,390.0 1403.0,330.0 1454.9,300.0"/>
<polygon points="1610.8,330.0 1610.8,390.0 1558.8,420.0 1506.9,390.0 1506.9,330.0 1558.8,300.0"/>
<polygon points="1714.7,330.0 1714.7,390.0 1662.8,420.0 1610.8,390.0 1610.8,330.0 1662.8,300.0"/>
<polygon points="1818.7,330.0 1818.7,390.0 1766.7,420.0 1714.7,390.0 1714.7,330.0 1766.7,300.0"/>
<polygon points="1922.6,330.0 1922.6,390.0 1870.6,420.0 1818.7,390.0 1818.7,330.0 1870.6,300.0"/>
<polygon points="2026.5,330.0 2026.5,390.0 1974.5,420.0 1922.6,390.0 1922.6,330.0 1974.5,300.0"/>
<polygon points="2130.4,330.0 2130.4,390.0 2078.5,420.0 2026.5,390.0 2026.5,330.0 2078.5,300.0"/>
<polygon points="2234.3,330.0 2234.3,390.0 2182.4,420.0 2130.4,390.0 2130.4,330.0 2182.4,300.0"/>
<polygon points="2338.3,330.0 2338.3,390.0 2286.3,420.0 2234.3,390.0 2234.3,330.0 2286.3,300.0"/>
<polygon points="2442.2,330.0 2442.2,390.0 2390.2,420.0 2338.3,390.0 2338.3,330.0 2390.2,300.0"/>
<polygon points="2546.1,330.0 2546.1,390.0 2494.2,420.0 2442.2,390.0 2442.2,330.0 2494.2,300.0"/>
<polygon points="2650.0,330.0 2650.0,390.0 2598.1,420.0 2546.1,390.0 2546.1,330.0 2598.1,300.0"/>
<polygon points="2754.0,330.0 2754.0,390.0 2702.0,420.0 2650.0,390.0 2650.0,330.0 2702.0,300.0"/>
<polygon points="2857.9,330.0 2857.9,390.0 2805.9,420.0 2754.0,390.0 2754.0,330.0 2805.9,300.0"/>
<polygon points="2961.8,330.0 2961.8,390.0 2909.8,420.0 2857.9,390.0 2857.9,330.0 2909.8,300.0"/>
<polygon points="103.9,420.0 103.9,480.0 52.0,510.0 -0.0,480.0 0.0,420.0 52.0,390.0"/>
<polygon points="207.8,420.0 207.8,480.0 155.9,510.0 103.9,480.0 103.9,420.0 155.9,390.0"/>
<polygon points="311.8,420.0 311.8,480.0 259.8,510.0 207.8,480.0 207.8,420.0 259.8,390.0"/>
<polygon points="415.7,420.0 415.7,480.0 363.7,510.0 311.8,480.0 311.8,420.0 363.7,390.0"/>
<polygon points="519.6,420.0 519.6,480.0 467.7,510.0 415.7,480.0 415.7,420.0 467.7,390.0"/>
<polygon points="623.5,420.0 623.5,480.0 571.6,510.0 519.6,480.0 519.6,420.0 571.6,390.0"/>
<polygon points="727.5,420.0 727.5,480.0 675.5,510.0 623.5,480.0 623.5,420.0 675.5,390.0"/>
<polygon points="831.4,420.0 831.4,480.0 779.4,510.0 727.5,480.0 727.5,420.0 779.4,390.0"/>
<polygon points="935.3,420.0 935.3,480.0 883.3,510.0 831.4,480.0 831.4,420.0 883.3,390.0"/>
<polygon points="1039.2,420.0 1039.2,480.0 987.3,510.0 935.3,480.0 935.3,420.0 987.3,390.0"/>
<polygon points="1143.2,420.0 1143.2,480.0 1091.2,510.0 1039.2,480.0 1039.2,420.0 1091.2,390.0"/>
<polygon points="1247.1,420.0 1247.1,480.0 1195.1,510.0 1143.2,480.0 1143.2,420.0 1195.1,390.0"/>
<polygon points="1351.0,420.0 1351.0,480.0 1299.0,510.0 1247.1,480.0 1247.1,420.0 1299.0,390.0"/>
<polygon points="1454.9,420.0 1454.9,480.0 1403.0,510.0 1351.0,480.0 1351.0,420.0 1403.0,390.0"/>
<polygon points="1558.8,420.0 1558.8,480.0 1506.9,510.0 1454.9,480.0 1454.9,420.0 1506.9,390.0"/>
<polygon points="1662.8,420.0 1662.8,480.0 1610.8,510.0 1558.8,480.0 1558.8,420.0 1610.8,390.0"/>
<polygon points="1766.7,420.0 1766.7,480.0 1714.7,510.0 1662.8,480.0 1662.8,420.0 1714.7,390.0"/>
<polygon points="1870.6,420.0 1870.6,480.0 1818.7,510.0 1766.7,480.0 1766.7,420.0 1818.7,390.0"/>
<polygon points="1974.5,420.0 1974.5,480.0 1922.6,510.0 1870.6,480.0 1870.6,420.0 1922.6,390.0"/>
<polygon points="2078.5,420.0 2078.5,480.0 2026.5,510.0 1974.5,480.0 1974.5,420.0 2026.5,390.0"/>
<polygon points="2182.4,420.0 2182.4,480.0 2130.4,510.0 2078.5,480.0 2078.5,420.0 2130.4,390.0"/>
<polygon points="2286.3,420.0 2286.3,480.0 2234.3,510.0 2182.4,480.0 2182.4,420.0 2234.3,390.0"/>
<polygon points="2390.2,420.0 2390.2,480.0 2338.3,510.0 2286.3,480.0 2286.3,420.0 2338.3,390.0"/>
<polygon points="2494.2,420.0 2494.2,480.0 2442.2,510.0 2390.2,480.0 2390.2,420.0 2442.2,390.0"/>
<polygon points="2598.1,420.0 2598.1,480.0 2546.1,510.0 2494.2,480.0 2494.2,420.0 2546.1,390.0"/>
<polygon points="2702.0,420.0 2702.0,480.0 2650.0,510.0 2598.1,480.0 2598.1,420.0 2650.0,390.0"/>
<polygon points="2805.9,420.0 2805.9,480.0 2754.0,510.0 2702.0,480.0 2702.0,420.0 2754.0,390.0"/>
<polygon points="2909.8,420.0 2909.8,480.0 2857.9,510.0 2805.9,480.0 2805.9,420.0 2857.9,390.0"/>
<polygon points="3013.8,420.0 3013.8,480.0 2961.8,510.0 2909.8,480.0 2909.8,420.0 2961.8,390.0"/>
<polygon points="52.0,510.0 52.0,570.0 0.0,600.0 -52.0,570.0 -52.0,510.0 -0.0,480.0"/>
<polygon points="155.9,510.0 155.9,570.0 103.9,600.0 52.0,570.0 52.0,510.0 103.9,480.0"/>
<polygon points="259.8,510.0 259.8,570.0 207.8,600.0 155.9,570.0 155.9,510.0 207.8,480.0"/>
<polygon points="363.7,510.0 363.7,570.0 311.8,600.0 259.8,570.0 259.8,510.0 311.8,480.0"/>
<polygon points="467.7,510.0 467.7,570.0 415.7,600.0 363.7,570.0 363.7,510.0 415.7,480.0"/>
<polygon points="571.6,510.0 571.6,570.0 519.6,600.0 467.7,570.0 467.7,510.0 519.6,480.0"/>
<polygon points="675.5,510.0 675.5,570.0 623.5,600.0 571.6,570.0 571.6,510.0 623.5,480.0"/>
<polygon points="779.4,510.0 779.4,570.0 727.5,600.0 675.5,570.0 675.5,510.0 727.5,480.0"/>
<polygon points="883.3,510.0 883.3,570.0 831.4,600.0 779.4,570.0 779.4,510.0 831.4,480.0"/>
<polygon points="987.3,510.0 987.3,570.0 935.3,600.0 883.3,570.0 883.3,510.0 935.3,480.0"/>
<polygon points="1091.2,510.0 1091.2,570.0 1039.2,600.0 987.3,570.0 987.3,510.0 1039.2,480.0"/>
<polygon points="1195.1,510.0 1195.1,570.0 1143.2,600.0 1091.2,570.0 1091.2,510.0 1143.2,480.0"/>
<polygon points="1299.0,510.0 1299.0,570.0 1247.1,600.0 1195.1,570.0 1195.1,510.0 1247.1,480.0"/>
<polygon points="1403.0,510.0 1403.0,570.0 1351.0,600.0 1299.0,570.0 1299.0,510.0 1351.0,480.0"/>
<polygon points="1506.9,510.0 1506.9,570.0 1454.9,600.0 1403.0,570.0 1403.0,510.0 1454.9,480.0"/>
<polygon points="1610.8,510.0 1610.8,570.0 1558.8,600.0 1506.9,570.0 1506.9,510.0 1558.8,480.0"/>
<polygon points="1714.7,510.0 1714.7,570.0 1662.8,600.0 1610.8,570.0 1610.8,510.0 1662.8,480.0"/>
<polygon points="1818.7,510.0 1818.7,570.0 1766.7,600.0 1714.7,570.0 1714.7,510.0 1766.7,480.0"/>
<polygon points="1922.6,510.0 1922.6,570.0 1870.6,600.0 1818.7,570.0 1818.7,510.0 1870.6,480.0"/>
<polygon points="2026.5,510.0 2026.5,570.0 1974.5,600.0 1922.6,570.0 1922.6,510.0 1974.5,480.0"/>
<polygon points="2130.4,510.0 2130.4,570.0 2078.5,600.0 2026.5,570.0 2026.5,510.0 2078.5,480.0"/>
<polygon points="2234.3,510.0 2234.3,570.0 2182.4,600.0 2130.4,570.0 2130.4,510.0 2182.4,480.0"/>
<polygon points="2338.3,510.0 2338.3,570.0 2286.3,600.0 2234.3,570.0 2234.3,510.0 2286.3,480.0"/>
<polygon points="2442.2,510.0 2442.2,570.0 2390.2,600.0 2338.3,570.0 2338.3,510.0 2390.2,480.0"/>
<polygon points="2546.1,510.0 2546.1,570.0 2494.2,600.0 2442.2,570.0 2442.2,510.0 2494.2,480.0"/>
<polygon points="2650.0,510.0 2650.0,570.0 2598.1,600.0 2546.1,570.0 2546.1,510.0 2598.1,480.0"/>
<polygon points="2754.0,510.0 2754.0,570.0 2702.0,600.0 2650.0,570.0 2650.0,510.0 2702.0,480.0"/>
<polygon points="2857.9,510.0 2857.9,570.0 2805.9,600.0 2754.0,570.0 2754.0,510.0 2805.9,480.0"/>
<polygon points="2961.8,510.0 2961.8,570.0 2909.8,600.0 2857.9,570.0 2857.9,510.0 2909.8,480.0"/>
<polygon points="103.9,600.0 103.9,660.0 52.0,690.0 -0.0,660.0 0.0,600.0 52.0,570.0"/>
<polygon points="207.8,600.0 207.8,660.0 155.9,690.0 103.9,660.0 103.9,600.0 155.9,570.0"/>
<polygon points="311.8,600.0 311.8,660.0 259.8,690.0 207.8,660.0 207.8,600.0 259.8,570.0"/>
<polygon points="415.7,600.0 415.7,660.0 363.7,690.0 311.8,660.0 311.8,600.0 363.7,570.0"/>
<polygon points="519.6,600.0 519.6,660.0 467.7,690.0 415.7,660.0 415.7,600.0 467.7,570.0"/>
<polygon points="623.5,600.0 623.5,660.0 571.6,690.0 519.6,660.0 519.6,600.0 571.6,570.0"/>
<polygon points="727.5,600.0 727.5,660.0 675.5,690.0 623.5,660.0 623.5,600.0 675.5,570.0"/>
<polygon points="831.4,600.0 831.4,660.0 779.4,690.0 727.5,660.0 727.5,600.0 779.4,570.0"/>
<polygon points="935.3,600.0 935.3,660.0 883.3,690.0 831.4,660.0 831.4,600.0 883.3,570.0"/>
<polygon points="1039.2,600.0 1039.2,660.0 987.3,690.0 935.3,660.0 935.3,600.0 987.3,570.0"/>
<polygon points="1143.2,600.0 1143.2,660.0 1091.2,690.0 1039.2,660.0 1039.2,600.0 1091.2,570.0"/>
<polygon points="1247.1,600.0 1247.1,660.0 1195.1,690.0 1143.2,660.0 1143.2,600.0 1195.1,570.0"/>
<polygon points="1351.0,600.0 1351.0,660.0 1299.0,690.0 1247.1,660.0 1247.1,600.0 1299.0,570.0"/>
<polygon points="1454.9,600.0 1454.9,660.0 1403.0,690.0 1351.0,660.0 1351.0,600.0 1403.0,570.0"/>
<polygon points="1558.8,600.0 1558.8,660.0 1506.9,690.0 1454.9,660.0 1454.9,600.0 1506.9,570.0"/>
<polygon points="1662.8,600.0 1662.8,660.0 1610.8,690.0 1558.8,660.0 1558.8,600.0 1610.8,570.0"/>
<polygon points="1766.7,600.0 1766.7,660.0 1714.7,690.0 1662.8,660.0 1662.8,600.0 1714.7,570.0"/>
<polygon points="1870.6,600.0 1870.6,660.0 1818.7,690.0 1766.7,660.0 1766.7,600.0 1818.7,570.0"/>
<polygon points="1974.5,600.0 1974.5,660.0 1922.6,690.0 1870.6,660.0 1870.6,600.0 1922.6,570.0"/>
<polygon points="2078.5,600.0 2078.5,660.0 2026.5,690.0 1974.5,660.0 1974.5,600.0 2026.5,570.0"/>
<polygon points="2182.4,600.0 2182.4,660.0 2130.4,690.0 2078.5,660.0 2078.5,600.0 2130.4,570.0"/>
<polygon points="2286.3,600.0 2286.3,660.0 2234.3,690.0 2182.4,660.0 2182.4,600.0 2234.3,570.0"/>
<polygon points="2390.2,600.0 2390.2,660.0 2338.3,690.0 2286.3,660.0 2286.3,600.0 2338.3,570.0"/>
<polygon points="2494.2,600.0 2494.2,660.0 2442.2,690.0 2390.2,660.0 2390.2,600.0 2442.2,570.0"/>
<polygon points="2598.1,600.0 2598.1,660.0 2546.1,690.0 2494.2,660.0 2494.2,600.0 2546.1,570.0"/>
<polygon points="2702.0,600.0 2702.0,660.0 2650.0,690.0 2598.1,660.0 2598.1,600.0 2650.0,570.0"/>
<polygon points="2805.9,600.0 2805.9,660.0 2754.0,690.0 2702.0,660.0 2702.0,600.0 2754.0,570.0"/>
<polygon points="2909.8,600.0 2909.8,660.0 2857.9,690.0 2805.9,660.0 2805.9,600.0 2857.9,570.0"/>
<polygon points="3013.8,600.0 3013.8,660.0 2961.8,690.0 2909.8,660.0 2909.8,600.0 2961.8,570.0"/>
<polygon points="52.0,690.0 52.0,750.0 0.0,780.0 -52.0,750.0 -52.0,690.0 -0.0,660.0"/>
<polygon points="155.9,690.0 155.9,750.0 103.9,780.0 52.0,750.0 52.0,690.0 103.9,660.0"/>
<polygon points="259.8,690.0 259.8,750.0 207.8,780.0 155.9,750.0 155.9,690.0 207.8,660.0"/>
<polygon points="363.7,690.0 363.7,750.0 311.8,780.0 259.8,750.0 259.8,690.0 311.8,660.0"/>
<polygon points="467.7,690.0 467.7,750.0 415.7,780.0 363.7,750.0 363.7,690.0 415.7,660.0"/>
<polygon points="571.6,690.0 571.6,750.0 519.6,780.0 467.7,750.0 467.7,690.0 519.6,660.0"/>
<polygon points="675.5,690.0 675.5,750.0 623.5,780.0 571.6,750.0 571.6,690.0 623.5,660.0"/>
<polygon points="779.4,690.0 779.4,750.0 727.5,780.0 675.5,750.0 675.5,690.0 727.5,660.0"/>
<polygon points="883.3,690.0 883.3,750.0 831.4,780.0 779.4,750.0 779.4,690.0 831.4,660.0"/>
<polygon points="987.3,690.0 987.3,750.0 935.3,780.0 883.3,750.0 883.3,690.0 935.3,660.0"/>
<polygon points="1091.2,690.0 1091.2,750.0 1039.2,780.0 987.3,750.0 987.3,690.0 1039.2,660.0"/>
<polygon points="1195.1,690.0 1195.1,750.0 1143.2,780.0 1091.2,750.0 1091.2,690.0 1143.2,660.0"/>
<polygon points="1299.0,690.0 1299.0,750.0 1247.1,780.0 1195.1,750.0 1195.1,690.0 1247.1,660.0"/>
<polygon points="1403.0,690.0 1403.0,750.0 1351.0,780.0 1299.0,750.0 1299.0,690.0 1351.0,660.0"/>
<polygon points="1506.9,690.0 1506.9,750.0 1454.9,780.0 1403.0,750.0 1403.0,690.0 1454.9,660.0"/>
<polygon points="1610.8,690.0 1610.8,750.0 1558.8,780.0 1506.9,750.0 1506.9,690.0 1558.8,660.0"/>
<polygon points="1714.7,690.0 1714.7,750.0 1662.8,780.0 1610.8,750.0 1610.8,690.0 1662.8,660.0"/>
<polygon points="1818.7,690.0 1818.7,750.0 1766.7,780.0 1714.7,750.0 1714.7,690.0 1766.7,660.0"/>
<polygon points="1922.6,690.0 1922.6,750.0 1870.6,780.0 1818.7,750.0 1818.7,690.0 1870.6,660.0"/>
<polygon points="2026.5,690.0 2026.5,750.0 1974.5,780.0 1922.6,750.0 1922.6,690.0 1974.5,660.0"/>
<polygon points="2130.4,690.0 2130.4,750.0 2078.5,780.0 2026.5,750.0 2026.5,690.0 2078.5,660.0"/>
<polygon points="2234.3,690.0 2234.3,750.0 2182.4,780.0 2130.4,750.0 2130.4,690.0 2182.4,660.0"/>
<polygon points="2338.3,690.0 2338.3,750.0 2286.3,780.0 2234.3,750.0 2234.3,690.0 2286.3,660.0"/>
<polygon points="2442.2,690.0 2442.2,750.0 2390.2,780.0 2338.3,750.0 2338.3,690.0 2390.2,660.0"/>
<polygon points="2546.1,690.0 2546.1,750.0 2494.2,780.0 2442.2,750.0 2442.2,690.0 2494.2,660.0"/>
<polygon points="2650.0,690.0 2650.0,750.0 2598.1,780.0 2546.1,750.0 2546.1,690.0 2598.1,660.0"/>
<polygon points="2754.0,690.0 2754.0,750.0 2702.0,780.0 2650.0,750.0 2650.0,690.0 2702.0,660.0"/>
<polygon points="2857.9,690.0 2857.9,750.0 2805.9,780.0 2754.0,750.0 2754.0,690.0 2805.9,660.0"/>
<polygon points="2961.8,690.0 2961.8,750.0 2909.8,780.0 2857.9,750.0 2857.9,690.0 2909.8,660.0"/>
<polygon points="103.9,780.0 103.9,840.0 52.0,870.0 -0.0,840.0 0.0,780.0 52.0,750.0"/>
<polygon points="207.8,780.0 207.8,840.0 155.9,870.0 103.9,840.0 103.9,780.0 155.9,750.0"/>
<polygon points="311.8,780.0 311.8,840.0 259.8,870.0 207.8,840.0 207.8,780.0 259.8,750.0"/>
<polygon points="415.7,780.0 415.7,840.0 363.7,870.0 311.8,840.0 311.8,780.0 363.7,750.0"/>
<polygon points="519.6,780.0 519.6,840.0 467.7,870.0 415.7,840.0 415.7,780.0 467.7,750.0"/>
<polygon points="623.5,780.0 623.5,840.0 571.6,870.0 519.6,840.0 519.6,780.0 571.6,750.0"/>
<polygon points="727.5,780.0 727.5,840.0 675.5,870.0 623.5,840.0 623.5,780.0 675.5,750.0"/>
<polygon points="831.4,780.0 831.4,840.0 779.4,870.0 727.5,840.0 727.5,780.0 779.4,750.0"/>
<polygon points="935.3,780.0 935.3,840.0 883.3,870.0 831.4,840.0 831.4,780.0 883.3,750.0"/>
<polygon points="1039.2,780.0 1039.2,840.0 987.3,870.0 935.3,840.0 935.3,780.0 987.3,750.0"/>
<polygon points="1143.2,780.0 1143.2,840.0 1091.2,870.0 1039.2,840.0 1039.2,780.0 1091.2,750.0"/>
<polygon points="1247.1,780.0 1247.1,840.0 1195.1,870.0 1143.2,840.0 1143.2,780.0 1195.1,750.0"/>
<polygon points="1351.0,780.0 1351.0,840.0 1299.0,870.0 1247.1,840.0 1247.1,780.0 1299.0,750.0"/>
<polygon points="1454.9,780.0 1454.9,840.0 1403.0,870.0 1351.0,840.0 1351.0,780.0 1403.0,750.0"/>
<polygon points="1558.8,780.0 1558.8,840.0 1506.9,870.0 1454.9,840.0 1454.9,780.0 1506.9,750.0"/>
<polygon points="1662.8,780.0 1662.8,840.0 1610.8,870.0 1558.8,840.0 1558.8,780.0 1610.8,750.0"/>
<polygon points="1766.7,780.0 1766.7,840.0 1714.7,870.0 1662.8,840.0 1662.8,780.0 1714.7,750.0"/>
<polygon points="1870.6,780.0 1870.6,840.0 1818.7,870.0 1766.7,840.0 1766.7,780.0 1818.7,750.0"/>
<polygon points="1974.5,780.0 1974.5,840.0 1922.6,870.0 1870.6,840.0 1870.6,780.0 1922.6,750.0"/>
<polygon points="2078.5,780.0 2078.5,840.0 2026.5,870.0 1974.5,840.0 1974.5,780.0 2026.5,750.0"/>
<polygon points="2182.4,780.0 2182.4,840.0 2130.4,870.0 2078.5,840.0 2078.5,780.0 2130.4,750.0"/>
<polygon points="2286.3,780.0 2286.3,840.0 2234.3,870.0 2182.4,840.0 2182.4,780.0 2234.3,750.0"/>
<polygon points="2390.2,780.0 2390.2,840.0 2338.3,870.0 2286.3,840.0 2286.3,780.0 2338.3,750.0"/>
<polygon points="2494.2,780.0 2494.2,840.0 2442.2,870.0 2390.2,840.0 2390.2,780.0 2442.2,750.0"/>
<polygon points="2598.1,780.0 2598.1,840.0 2546.1,870.0 2494.2,840.0 2494.2,780.0 2546.1,750.0"/>
<polygon points="2702.0,780.0 2702.0,840.0 2650.0,870.0 2598.1,840.0 2598.1,780.0 2650.0,750.0"/>
<polygon points="2805.9,780.0 2805.9,840.0 2754.0,870.0 2702.0,840.0 2702.0,780.0 2754.0,750.0"/>
<polygon points="2909.8,780.0 2909.8,840.0 2857.9,870.0 2805.9,840.0 2805.9,780.0 2857.9,750.0"/>
<polygon points="3013.8,780.0 3013.8,840.0 2961.8,870.0 2909.8,840.0 2909.8,780.0 2961.8,750.0"/>
<polygon points="52.0,870.0 52.0,930.0 0.0,960.0 -52.0,930.0 -52.0,870.0 -0.0,840.0"/>
<polygon points="155.9,870.0 155.9,930.0 103.9,960.0 52.0,930.0 52.0,870.0 103.9,840.0"/>
<polygon points="259.8,870.0 259.8,930.0 207.8,960.0 155.9,930.0 155.9,870.0 207.8,840.0"/>
<polygon points="363.7,870.0 363.7,930.0 311.8,960.0 259.8,930.0 259.8,870.0 311.8,840.0"/>
<polygon points="467.7,870.0 467.7,930.0 415.7,960.0 363.7,930.0 363.7,870.0 415.7,840.0"/>
<polygon points="571.6,870.0 571.6,930.0 519.6,960.0 467.7,930.0 467.7,870.0 519.6,840.0"/>
<polygon points="675.5,870.0 675.5,930.0 623.5,960.0 571.6,930.0 571.6,870.0 623.5,840.0"/>
<polygon points="779.4,870.0 779.4,930.0 727.5,960.0 675.5,930.0 675.5,870.0 727.5,840.0"/>
<polygon points="883.3,870.0 883.3,930.0 831.4,960.0 779.4,930.0 779.4,870.0 831.4,840.0"/>
<polygon points="987.3,870.0 987.3,930.0 935.3,960.0 883.3,930.0 883.3,870.0 935.3,840.0"/>
<polygon points="1091.2,870.0 1091.2,930.0 1039.2,960.0 987.3,930.0 987.3,870.0 1039.2,840.0"/>
<polygon points="1195.1,870.0 1195.1,930.0 1143.2,960.0 1091.2,930.0 1091.2,870.0 1143.2,840.0"/>
<polygon points="1299.0,870.0 1299.0,930.0 1247.1,960.0 1195.1,930.0 1195.1,870.0 1247.1,840.0"/>
<polygon points="1403.0,870.0 1403.0,930.0 1351.0,960.0 1299.0,930.0 1299.0,870.0 1351.0,840.0"/>
<polygon points="1506.9,870.0 1506.9,930.0 1454.9,960.0 1403.0,930.0 1403.0,870.0 1454.9,840.0"/>
<polygon points="1610.8,870.0 1610.8,930.0 1558.8,960.0 1506.9,930.0 1506.9,870.0 1558.8,840.0"/>
<polygon points="1714.7,870.0 1714.7,930.0 1662.8,960.0 1610.8,930.0 1610.8,870.0 1662.8,840.0"/>
<polygon points="1818.7,870.0 1818.7,930.0 1766.7,960.0 1714.7,930.0 1714.7,870.0 1766.7,840.0"/>
<polygon points="1922.6,870.0 1922.6,930.0 1870.6,960.0 1818.7,930.0 1818.7,870.0 1870.6,840.0"/>
<polygon points="2026.5,870.0 2026.5,930.0 1974.5,960.0 1922.6,930.0 1922.6,870.0 1974.5,840.0"/>
<polygon points="2130.4,870.0 2130.4,930.0 2078.5,960.0 2026.5,930.0 2026.5,870.0 2078.5,840.0"/>
<polygon points="2234.3,870.0 2234.3,930.0 2182.4,960.0 2130.4,930.0 2130.4,870.0 2182.4,840.0"/>
<polygon points="2338.3,870.0 2338.3,930.0 2286.3,960.0 2234.3,930.0 2234.3,870.0 2286.3,840.0"/>
<polygon points="2442.2,870.0 2442.2,930.0 2390.2,960.0 2338.3,930.0 2338.3,870.0 2390.2,840.0"/>
<polygon points="2546.1,870.0 2546.1,930.0 2494.2,960.0 2442.2,930.0 2442.2,870.0 2494.2,840.0"/>
<polygon points="2650.0,870.0 2650.0,930.0 2598.1,960.0 2546.1,930.0 2546.1,870.0 2598.1,840.0"/>
<polygon points="2754.0,870.0 2754.0,930.0 2702.0,960.0 2650.0,930.0 2650.0,870.0 2702.0,840.0"/>
<polygon points="2857.9,870.0 2857.9,930.0 2805.9,960.0 2754.0,930.0 2754.0,870.0 2805.9,840.0"/>
<polygon points="2961.8,870.0 2961.8,930.0 2909.8,960.0 2857.9,930.0 2857.9,870.0 2909.8,840.0"/>
<polygon points="103.9,960.0 103.9,1020.0 52.0,1050.0 -0.0,1020.0 0.0,960.0 52.0,930.0"/>
<polygon points="207.8,960.0 207.8,1020.0 155.9,1050.0 103.9,1020.0 103.9,960.0 155.9,930.0"/>
<polygon points="311.8,960.0 311.8,1020.0 259.8,1050.0 207.8,1020.0 207.8,960.0 259.8,930.0"/>
<polygon points="415.7,960.0 415.7,1020.0 363.7,1050.0 311.8,1020.0 311.8,960.0 363.7,930.0"/>
<polygon points="519.6,960.0 519.6,1020.0 467.7,1050.0 415.7,1020.0 415.7,960.0 467.7,930.0"/>
<polygon points="623.5,960.0 623.5,1020.0 571.6,1050.0 519.6,1020.0 519.6,960.0 571.6,930.0"/>
<polygon points="727.5,960.0 727.5,1020.0 675.5,1050.0 623.5,1020.0 623.5,960.0 675.5,930.0"/>
<polygon points="831.4,960.0 831.4,1020.0 779.4,1050.0 727.5,1020.0 727.5,960.0 779.4,930.0"/>
<polygon points="935.3,960.0 935.3,1020.0 883.3,1050.0 831.4,1020.0 831.4,960.0 883.3,930.0"/>
<polygon points="1039.2,960.0 1039.2,1020.0 987.3,1050.0 935.3,1020.0 935.3,960.0 987.3,930.0"/>
<polygon points="1143.2,960.0 1143.2,1020.0 1091.2,1050.0 1039.2,1020.0 1039.2,960.0 1091.2,930.0"/>
<polygon points="1247.1,960.0 1247.1,1020.0 1195.1,1050.0 1143.2,1020.0 1143.2,960.0 1195.1,930.0"/>
<polygon points="1351.0,960.0 1351.0,1020.0 1299.0,1050.0 1247.1,1020.0 1247.1,960.0 1299.0,930.0"/>
<polygon points="1454.9,960.0 1454.9,1020.0 1403.0,1050.0 1351.0,1020.0 1351.0,960.0 1403.0,930.0"/>
<polygon points="1558.8,960.0 1558.8,1020.0 1506.9,1050.0 1454.9,1020.0 1454.9,960.0 1506.9,930.0"/>
<polygon points="1662.8,960.0 1662.8,1020.0 1610.8,1050.0 1558.8,1020.0 1558.8,960.0 1610.8,930.0"/>
<polygon points="1766.7,960.0 1766.7,1020.0 1714.7,1050.0 1662.8,1020.0 1662.8,960.0 1714.7,930.0"/>
<polygon points="1870.6,960.0 1870.6,1020.0 1818.7,1050.0 1766.7,1020.0 1766.7,960.0 1818.7,930.0"/>
<polygon points="1974.5,960.0 1974.5,1020.0 1922.6,1050.0 1870.6,1020.0 1870.6,960.0 1922.6,930.0"/>
<polygon points="2078.5,960.0 2078.5,1020.0 2026.5,1050.0 1974.5,1020.0 1974.5,960.0 2026.5,930.0"/>
<polygon points="2182.4,960.0 2182.4,1020.0 2130.4,1050.0 2078.5,1020.0 2078.5,960.0 2130.4,930.0"/>
<polygon points="2286.3,960.0 2286.3,1020.0 2234.3,1050.0 2182.4,1020.0 2182.4,960.0 2234.3,930.0"/>
<polygon points="2390.2,960.0 2390.2,1020.0 2338.3,1050.0 2286.3,1020.0 2286.3,960.0 2338.3,930.0"/>
<polygon points="2494.2,960.0 2494.2,1020.0 2442.2,1050.0 2390.2,1020.0 2390.2,960.0 2442.2,930.0"/>
<polygon points="2598.1,960.0 2598.1,1020.0 2546.1,1050.0 2494.2,1020.0 2494.2,960.0 2546.1,930.0"/>
<polygon points="2702.0,960.0 2702.0,1020.0 2650.0,1050.0 2598.1,1020.0 2598.1,960.0 2650.0,930.0"/>
<polygon points="2805.9,960.0 2805.9,1020.0 2754.0,1050.0 2702.0,1020.0 2702.0,960.0 2754.0,930.0"/>
<polygon points="2909.8,960.0 2909.8,1020.0 2857.9,1050.0 2805.9,1020.0 2805.9,960.0 2857.9,930.0"/>
<polygon points="3013.8,960.0 3013.8,1020.0 2961.8,1050.0 2909.8,1020.0 2909.8,960.0 2961.8,930.0"/>
<polygon points="52.0,1050.0 52.0,1110.0 0.0,1140.0 -52.0,1110.0 -52.0,1050.0 -0.0,1020.0"/>
<polygon points="155.9,1050.0 155.9,1110.0 103.9,1140.0 52.0,1110.0 52.0,1050.0 103.9,1020.0"/>
<polygon points="259.8,1050.0 259.8,1110.0 207.8,1140.0 155.9,1110.0 155.9,1050.0 207.8,1020.0"/>
<polygon points="363.7,1050.0 363.7,1110.0 311.8,1140.0 259.8,1110.0 259.8,1050.0 311.8,1020.0"/>
<polygon points="467.7,1050.0 467.7,1110.0 415.7,1140.0 363.7,1110.0 363.7,1050.0 415.7,1020.0"/>
<polygon points="571.6,1050.0 571.6,1110.0 519.6,1140.0 467.7,1110.0 467.7,1050.0 519.6,1020.0"/>
<polygon points="675.5,1050.0 675.5,1110.0 623.5,1140.0 571.6,1110.0 571.6,1050.0 623.5,1020.0"/>
<polygon points="779.4,1050.0 779.4,1110.0 727.5,1140.0 675.5,1110.0 675.5,1050.0 727.5,1020.0"/>
<polygon points="883.3,1050.0 883.3,1110.0 831.4,1140.0 779.4,1110.0 779.4,1050.0 831.4,1020.0"/>
<polygon points="987.3,1050.0 987.3,1110.0 935.3,1140.0 883.3,1110.0 883.3,1050.0 935.3,1020.0"/>
<polygon points="1091.2,1050.0 1091.2,1110.0 1039.2,1140.0 987.3,1110.0 987.3,1050.0 1039.2,1020.0"/>
<polygon points="1195.1,1050.0 1195.1,1110.0 1143.2,1140.0 1091.2,1110.0 1091.2,1050.0 1143.2,1020.0"/>
<polygon points="1299.0,1050.0 1299.0,1110.0 1247.1,1140.0 1195.1,1110.0 1195.1,1050.0 1247.1,1020.0"/>
<polygon points="1403.0,1050.0 1403.0,1110.0 1351.0,1140.0 1299.0,1110.0 1299.0,1050.0 1351.0,1020.0"/>
<polygon points="1506.9,1050.0 1506.9,1110.0 1454.9,1140.0 1403.0,1110.0 1403.0,1050.0 1454.9,1020.0"/>
<polygon points="1610.8,1050.0 1610.8,1110.0 1558.8,1140.0 1506.9,1110.0 1506.9,1050.0 1558.8,1020.0"/>
<polygon points="1714.7,1050.0 1714.7,1110.0 1662.8,1140.0 1610.8,1110.0 1610.8,1050.0 1662.8,1020.0"/>
<polygon points="1818.7,1050.0 1818.7,1110.0 1766.7,1140.0 1714.7,1110.0 1714.7,1050.0 1766.7,1020.0"/>
<polygon points="1922.6,1050.0 1922.6,1110.0 1870.6,1140.0 1818.7,1110.0 1818.7,1050.0 1870.6,1020.0"/>
<polygon points="2026.5,1050.0 2026.5,1110.0 1974.5,1140.0 1922.6,1110.0 1922.6,1050.0 1974.5,1020.0"/>
<polygon points="2130.4,1050.0 2130.4,1110.0 2078.5,1140.0 2026.5,1110.0 2026.5,1050.0 2078.5,1020.0"/>
<polygon points="2234.3,1050.0 2234.3,1110.0 2182.4,1140.0 2130.4,1110.0 2130.4,1050.0 2182.4,1020.0"/>
<polygon points="2338.3,1050.0 2338.3,1110.0 2286.3,1140.0 2234.3,1110.0 2234.3,1050.0 2286.3,1020.0"/>
<polygon points="2442.2,1050.0 2442.2,1110.0 2390.2,1140.0 2338.3,1110.0 2338.3,1050.0 2390.2,1020.0"/>
<polygon points="2546.1,1050.0 2546.1,1110.0 2494.2,1140.0 2442.2,1110.0 2442.2,1050.0 2494.2,1020.0"/>
<polygon points="2650.0,1050.0 2650.0,1110.0 2598.1,1140.0 2546.1,1110.0 2546.1,1050.0 2598.1,1020.0"/>
<polygon points="2754.0,1050.0 2754.0,1110.0 2702.0,1140.0 2650.0,1110.0 2650.0,1050.0 2702.0,1020.0"/>
<polygon points="2857.9,1050.0 2857.9,1110.0 2805.9,1140.0 2754.0,1110.0 2754.0,1050.0 2805.9,1020.0"/>
<polygon points="2961.8,1050.0 2961.8,1110.0 2909.8,1140.0 2857.9,1110.0 2857.9,1050.0 2909.8,1020.0"/>
<polygon points="103.9,1140.0 103.9,1200.0 52.0,1230.0 -0.0,1200.0 0.0,1140.0 52.0,1110.0"/>
<polygon points="207.8,1140.0 207.8,1200.0 155.9,1230.0 103.9,1200.0 103.9,1140.0 155.9,1110.0"/>
<polygon points="311.8,1140.0 311.8,1200.0 259.8,1230.0 207.8,1200.0 207.8,1140.0 259.8,1110.0"/>
<polygon points="415.7,1140.0 415.7,1200.0 363.7,1230.0 311.8,1200.0 311.8,1140.0 363.7,1110.0"/>
<polygon points="519.6,1140.0 519.6,1200.0 467.7,1230.0 415.7,1200.0 415.7,1140.0 467.7,1110.0"/>
<polygon points="623.5,1140.0 623.5,1200.0 571.6,1230.0 519.6,1200.0 519.6,1140.0 571.6,1110.0"/>
<polygon points="727.5,1140.0 727.5,1200.0 675.5,1230.0 623.5,1200.0 623.5,1140.0 675.5,1110.0"/>
<polygon points="831.4,1140.0 831.4,1200.0 779.4,1230.0 727.5,1200.0 727.5,1140.0 779.4,1110.0"/>
<polygon points="935.3,1140.0 935.3,1200.0 883.3,1230.0 831.4,1200.0 831.4,1140.0 883.3,1110.0"/>
<polygon points="1039.2,1140.0 1039.2,1200.0 987.3,1230.0 935.3,1200.0 935.3,1140.0 987.3,1110.0"/>
<polygon points="1143.2,1140.0 1143.2,1200.0 1091.2,1230.0 1039.2,1200.0 1039.2,1140.0 1091.2,1110.0"/>
<polygon points="1247.1,1140.0 1247.1,1200.0 1195.1,1230.0 1143.2,1200.0 1143.2,1140.0 1195.1,1110.0"/>
<polygon points="1351.0,1140.0 1351.0,1200.0 1299.0,1230.0 1247.1,1200.0 1247.1,1140.0 1299.0,1110.0"/>
<polygon points="1454.9,1140.0 1454.9,1200.0 1403.0,1230.0 1351.0,1200.0 1351.0,1140.0 1403.0,1110.0"/>
<polygon points="1558.8,1140.0 1558.8,1200.0 1506.9,1230.0 1454.9,1200.0 1454.9,1140.0 1506.9,1110.0"/>
<polygon points="1662.8,1140.0 1662.8,1200.0 1610.8,1230.0 1558.8,1200.0 1558.8,1140.0 1610.8,1110.0"/>
<polygon points="1766.7,1140.0 1766.7,1200.0 1714.7,1230.0 1662.8,1200.0 1662.8,1140.0 1714.7,1110.0"/>
<polygon points="1870.6,1140.0 1870.6,1200.0 1818.7,1230.0 1766.7,1200.0 1766.7,1140.0 1818.7,1110.0"/>
<polygon points="1974.5,1140.0 1974.5,1200.0 1922.6,1230.0 1870.6,1200.0 1870.6,1140.0 1922.6,1110.0"/>
<polygon points="2078.5,1140.0 2078.5,1200.0 2026.5,1230.0 1974.5,1200.0 1974.5,1140.0 2026.5,1110.0"/>
<polygon points="2182.4,1140.0 2182.4,1200.0 2130.4,1230.0 2078.5,1200.0 2078.5,1140.0 2130.4,1110.0"/>
<polygon points="2286.3,1140.0 2286.3,1200.0 2234.3,1230.0 2182.4,1200.0 2182.4,1140.0 2234.3,1110.0"/>
<polygon points="2390.2,1140.0 2390.2,1200.0 2338.3,1230.0 2286.3,1200.0 2286.3,1140.0 2338.3,1110.0"/>
<polygon points="2494.2,1140.0 2494.2,1200.0 2442.2,1230.0 2390.2,1200.0 2390.2,1140.0 2442.2,1110.0"/>
<polygon points="2598.1,1140.0 2598.1,1200.0 2546.1,1230.0 2494.2,1200.0 2494.2,1140.0 2546.1,1110.0"/>
<polygon points="2702.0,1140.0 2702.0,1200.0 2650.0,1230.0 2598.1,1200.0 2598.1,1140.0 2650.0,1110.0"/>
<polygon points="2805.9,1140.0 2805.9,1200.0 2754.0,1230.0 2702.0,1200.0 2702.0,1140.0 2754.0,1110.0"/>
<polygon points="2909.8,1140.0 2909.8,1200.0 2857.9,1230.0 2805.9,1200.0 2805.9,1140.0 2857.9,1110.0"/>
<polygon points="3013.8,1140.0 3013.8,1200.0 2961.8,1230.0 2909.8,1200.0 2909.8,1140.0 2961.8,1110.0"/>
<polygon points="52.0,1230.0 52.0,1290.0 0.0,1320.0 -52.0,1290.0 -52.0,1230.0 -0.0,1200.0"/>
<polygon points="155.9,1230.0 155.9,1290.0 103.9,1320.0 52.0,1290.0 52.0,1230.0 103.9,1200.0"/>
<polygon points="259.8,1230.0 259.8,1290.0 207.8,1320.0 155.9,1290.0 155.9,1230.0 207.8,1200.0"/>
<polygon points="363.7,1230.0 363.7,1290.0 311.8,1320.0 259.8,1290.0 259.8,1230.0 311.8,1200.0"/>
<polygon points="467.7,1230.0 467.7,1290.0 415.7,1320.0 363.7,1290.0 363.7,1230.0 415.7,1200.0"/>
<polygon points="571.6,1230.0 571.6,1290.0 519.6,1320.0 467.7,1290.0 467.7,1230.0 519.6,1200.0"/>
<polygon points="675.5,1230.0 675.5,1290.0 623.5,1320.0 571.6,1290.0 571.6,1230.0 623.5,1200.0"/>
<polygon points="779.4,1230.0 779.4,1290.0 727.5,1320.0 675.5,1290.0 675.5,1230.0 727.5,1200.0"/>
<polygon points="883.3,1230.0 883.3,1290.0 831.4,1320.0 779.4,1290.0 779.4,1230.0 831.4,1200.0"/>
<polygon points="987.3,1230.0 987.3,1290.0 935.3,1320.0 883.3,1290.0 883.3,1230.0 935.3,1200.0"/>
<polygon points="1091.2,1230.0 1091.2,1290.0 1039.2,1320.0 987.3,1290.0 987.3,1230.0 1039.2,1200.0"/>
<polygon points="1195.1,1230.0 1195.1,1290.0 1143.2,1320.0 1091.2,1290.0 1091.2,1230.0 1143.2,1200.0"/>
<polygon points="1299.0,1230.0 1299.0,1290.0 1247.1,1320.0 1195.1,1290.0 1195.1,1230.0 1247.1,1200.0"/>
<polygon points="1403.0,1230.0 1403.0,1290.0 1351.0,1320.0 1299.0,1290.0 1299.0,1230.0 1351.0,1200.0"/>
<polygon points="1506.9,1230.0 1506.9,1290.0 1454.9,1320.0 1403.0,1290.0 1403.0,1230.0 1454.9,1200.0"/>
<polygon points="1610.8,1230.0 1610.8,1290.0 1558.8,1320.0 1506.9,1290.0 1506.9,1230.0 1558.8,1200.0"/>
<polygon points="1714.7,1230.0 1714.7,1290.0 1662.8,1320.0 1610.8,1290.0 1610.8,1230.0 1662.8,1200.0"/>
<polygon points="1818.7,1230.0 1818.7,1290.0 1766.7,1320.0 1714.7,1290.0 1714.7,1230.0 1766.7,1200.0"/>
<polygon points="1922.6,1230.0 1922.6,1290.0 1870.6,1320.0 1818.7,1290.0 1818.7,1230.0 1870.6,1200.0"/>
<polygon points="2026.5,1230.0 2026.5,1290.0 1974.5,1320.0 1922.6,1290.0 1922.6,1230.0 1974.5,1200.0"/>
<polygon points="2130.4,1230.0 2130.4,1290.0 2078.5,1320.0 2026.5,1290.0 2026.5,1230.0 2078.5,1200.0"/>
<polygon points="2234.3,1230.0 2234.3,1290.0 2182.4,1320.0 2130.4,1290.0 2130.4,1230.0 2182.4,1200.0"/>
<polygon points="2338.3,1230.0 2338.3,1290.0 2286.3,1320.0 2234.3,1290.0 2234.3,1230.0 2286.3,1200.0"/>
<polygon points="2442.2,1230.0 2442.2,1290.0 2390.2,1320.0 2338.3,1290.0 2338.3,1230.0 2390.2,1200.0"/>
<polygon points="2546.1,1230.0 2546.1,1290.0 2494.2,1320.0 2442.2,1290.0 2442.2,1230.0 2494.2,1200.0"/>
<polygon points="2650.0,1230.0 2650.0,1290.0 2598.1,1320.0 2546.1,1290.0 2546.1,1230.0 2598.1,1200.0"/>
<polygon points="2754.0,1230.0 2754.0,1290.0 2702.0,1320.0 2650.0,1290.0 2650.0,1230.0 2702.0,1200.0"/>
<polygon points="2857.9,1230.0 2857.9,1290.0 2805.9,1320.0 2754.0,1290.0 2754.0,1230.0 2805.9,1200.0"/>
<polygon points="2961.8,1230.0 2961.8,1290.0 2909.8,1320.0 2857.9,1290.0 2857.9,1230.0 2909.8,1200.0"/>
<polygon points="103.9,1320.0 103.9,1380.0 52.0,1410.0 -0.0,1380.0 0.0,1320.0 52.0,1290.0"/>
<polygon points="207.8,1320.0 207.8,1380.0 155.9,1410.0 103.9,1380.0 103.9,1320.0 155.9,1290.0"/>
<polygon points="311.8,1320.0 311.8,1380.0 259.8,1410.0 207.8,1380.0 207.8,1320.0 259.8,1290.0"/>
<polygon points="415.7,1320.0 415.7,1380.0 363.7,1410.0 311.8,1380.0 311.8,1320.0 363.7,1290.0"/>
<polygon points="519.6,1320.0 519.6,1380.0 467.7,1410.0 415.7,1380.0 415.7,1320.0 467.7,1290.0"/>
<polygon points="623.5,1320.0 623.5,1380.0 571.6,1410.0 519.6,1380.0 519.6,1320.0 571.6,1290.0"/>
<polygon points="727.5,1320.0 727.5,1380.0 675.5,1410.0 623.5,1380.0 623.5,1320.0 675.5,1290.0"/>
<polygon points="831.4,1320.0 831.4,1380.0 779.4,1410.0 727.5,1380.0 727.5,1320.0 779.4,1290.0"/>
<polygon points="935.3,1320.0 935.3,1380.0 883.3,1410.0 831.4,1380.0 831.4,1320.0 883.3,1290.0"/>
<polygon points="1039.2,1320.0 1039.2,1380.0 987.3,1410.0 935.3,1380.0 935.3,1320.0 987.3,1290.0"/>
<polygon points="1143.2,1320.0 1143.2,1380.0 1091.2,1410.0 1039.2,1380.0 1039.2,1320.0 1091.2,1290.0"/>
<polygon points="1247.1,1320.0 1247.1,1380.0 1195.1,1410.0 1143.2,1380.0 1143.2,1320.0 1195.1,1290.0"/>
<polygon points="1351.0,1320.0 1351.0,1380.0 1299.0,1410.0 1247.1,1380.0 1247.1,1320.0 1299.0,1290.0"/>
<polygon points="1454.9,1320.0 1454.9,1380.0 1403.0,1410.0 1351.0,1380.0 1351.0,1320.0 1403.0,1290.0"/>
<polygon points="1558.8,1320.0 1558.8,1380.0 1506.9,1410.0 1454.9,1380.0 1454.9,1320.0 1506.9,1290.0"/>
<polygon points="1662.8,1320.0 1662.8,1380.0 1610.8,1410.0 1558.8,1380.0 1558.8,1320.0 1610.8,1290.0"/>
<polygon points="1766.7,1320.0 1766.7,1380.0 1714.7,1410.0 1662.8,1380.0 1662.8,1320.0 1714.7,1290.0"/>
<polygon points="1870.6,1320.0 1870.6,1380.0 1818.7,1410.0 1766.7,1380.0 1766.7,1320.0 1818.7,1290.0"/>
<polygon points="1974.5,1320.0 1974.5,1380.0 1922.6,1410.0 1870.6,1380.0 1870.6,1320.0 1922.6,1290.0"/>
<polygon points="2078.5,1320.0 2078.5,1380.0 2026.5,1410.0 1974.5,1380.0 1974.5,1320.0 2026.5,1290.0"/>
<polygon points="2182.4,1320.0 2182.4,1380.0 2130.4,1410.0 2078.5,1380.0 2078.5,1320.0 2130.4,1290.0"/>
<polygon points="2286.3,1320.0 2286.3,1380.0 2234.3,1410.0 2182.4,1380.0 2182.4,1320.0 2234.3,1290.0"/>
<polygon points="2390.2,1320.0 2390.2,1380.0 2338.3,1410.0 2286.3,1380.0 2286.3,1320.0 2338.3,1290.0"/>
<polygon points="2494.2,1320.0 2494.2,1380.0 2442.2,1410.0 2390.2,1380.0 2390.2,1320.0 2442.2,1290.0"/>
<polygon points="2598.1,1320.0 2598.1,1380.0 2546.1,1410.0 2494.2,1380.0 2494.2,1320.0 2546.1,1290.0"/>
<polygon points="2702.0,1320.0 2702.0,1380.0 2650.0,1410.0 2598.1,1380.0 2598.1,1320.0 2650.0,1290.0"/>
<polygon points="2805.9,1320.0 2805.9,1380.0 2754.0,1410.0 2702.0,1380.0 2702.0,1320.0 2754.0,1290.0"/>
<polygon points="2909.8,1320.0 2909.8,1380.0 2857.9,1410.0 2805.9,1380.0 2805.9,1320.0 2857.9,1290.0"/>
<polygon points="3013.8,1320.0 3013.8,1380.0 2961.8,1410.0 2909.8,1380.0 2909.8,1320.0 2961.8,1290.0"/>
<polygon points="52.0,1410.0 52.0,1470.0 0.0,1500.0 -52.0,1470.0 -52.0,1410.0 -0.0,1380.0"/>
<polygon points="155.9,1410.0 155.9,1470.0 103.9,1500.0 52.0,1470.0 52.0,1410.0 103.9,1380.0"/>
<polygon points="259.8,1410.0 259.8,1470.0 207.8,1500.0 155.9,1470.0 155.9,1410.0 207.8,1380.0"/>
<polygon points="363.7,1410.0 363.7,1470.0 311.8,1500.0 259.8,1470.0 259.8,1410.0 311.8,1380.0"/>
<polygon points="467.7,1410.0 467.7,1470.0 415.7,1500.0 363.7,1470.0 363.7,1410.0 415.7,1380.0"/>
<polygon points="571.6,1410.0 571.6,1470.0 519.6,1500.0 467.7,1470.0 467.7,1410.0 519.6,1380.0"/>
<polygon points="675.5,1410.0 675.5,1470.0 623.5,1500.0 571.6,1470.0 571.6,1410.0 623.5,1380.0"/>
<polygon points="779.4,1410.0 779.4,1470.0 727.5,1500.0 675.5,1470.0 675.5,1410.0 727.5,1380.0"/>
<polygon points="883.3,1410.0 883.3,1470.0 831.4,1500.0 779.4,1470.0 779.4,1410.0 831.4,1380.0"/>
<polygon points="987.3,1410.0 987.3,1470.0 935.3,1500.0 883.3,1470.0 883.3,1410.0 935.3,1380.0"/>
<polygon points="1091.2,1410.0 1091.2,1470.0 1039.2,1500.0 987.3,1470.0 987.3,1410.0 1039.2,1380.0"/>
<polygon points="1195.1,1410.0 1195.1,1470.0 1143.2,1500.0 1091.2,1470.0 1091.2,1410.0 1143.2,1380.0"/>
<polygon points="1299.0,1410.0 1299.0,1470.0 1247.1,1500.0 1195.1,1470.0 1195.1,1410.0 1247.1,1380.0"/>
<polygon points="1403.0,1410.0 1403.0,1470.0 1351.0,1500.0 1299.0,1470.0 1299.0,1410.0 1351.0,1380.0"/>
<polygon points="1506.9,1410.0 1506.9,1470.0 1454.9,1500.0 1403.0,1470.0 1403.0,1410.0 1454.9,1380.0"/>
<polygon points="1610.8,1410.0 1610.8,1470.0 1558.8,1500.0 1506.9,1470.0 1506.9,1410.0 1558.8,1380.0"/>
<polygon points="1714.7,1410.0 1714.7,1470.0 1662.8,1500.0 1610.8,1470.0 1610.8,1410.0 1662.8,1380.0"/>
<polygon points="1818.7,1410.0 1818.7,1470.0 1766.7,1500.0 1714.7,1470.0 1714.7,1410.0 1766.7,1380.0"/>
<polygon points="1922.6,1410.0 1922.6,1470.0 1870.6,1500.0 1818.7,1470.0 1818.7,1410.0 1870.6,1380.0"/>
<polygon points="2026.5,1410.0 2026.5,1470.0 1974.5,1500.0 1922.6,1470.0 1922.6,1410.0 1974.5,1380.0"/>
<polygon points="2130.4,1410.0 2130.4,1470.0 2078.5,1500.0 2026.5,1470.0 2026.5,1410.0 2078.5,1380.0"/>
<polygon points="2234.3,1410.0 2234.3,1470.0 2182.4,1500.0 2130.4,1470.0 2130.4,1410.0 2182.4,1380.0"/>
<polygon points="2338.3,1410.0 2338.3,1470.0 2286.3,1500.0 2234.3,1470.0 2234.3,1410.0 2286.3,1380.0"/>
<polygon points="2442.2,1410.0 2442.2,1470.0 2390.2,1500.0 2338.3,1470.0 2338.3,1410.0 2390.2,1380.0"/>
<polygon points="2546.1,1410.0 2546.1,1470.0 2494.2,1500.0 2442.2,1470.0 2442.2,1410.0 2494.2,1380.0"/>
<polygon points="2650.0,1410.0 2650.0,1470.0 2598.1,1500.0 2546.1,1470.0 2546.1,1410.0 2598.1,1380.0"/>
<polygon points="2754.0,1410.0 2754.0,1470.0 2702.0,1500.0 2650.0,1470.0 2650.0,1410.0 2702.0,1380.0"/>
<polygon points="2857.9,1410.0 2857.9,1470.0 2805.9,1500.0 2754.0,1470.0 2754.0,1410.0 2805.9,1380.0"/>
<polygon points="2961.8,1410.0 2961.8,1470.0 2909.8,1500.0 2857.9,1470.0 2857.9,1410.0 2909.8,1380.0"/>
<polygon points="103.9,1500.0 103.9,1560.0 52.0,1590.0 -0.0,1560.0 0.0,1500.0 52.0,1470.0"/>
<polygon points="207.8,1500.0 207.8,1560.0 155.9,1590.0 103.9,1560.0 103.9,1500.0 155.9,1470.0"/>
<polygon points="311.8,1500.0 311.8,1560.0 259.8,1590.0 207.8,1560.0 207.8,1500.0 259.8,1470.0"/>
<polygon points="415.7,1500.0 415.7,1560.0 363.7,1590.0 311.8,1560.0 311.8,1500.0 363.7,1470.0"/>
<polygon points="519.6,1500.0 519.6,1560.0 467.7,1590.0 415.7,1560.0 415.7,1500.0 467.7,1470.0"/>
<polygon points="623.5,1500.0 623.5,1560.0 571.6,1590.0 519.6,1560.0 519.6,1500.0 571.6,1470.0"/>
<polygon points="727.5,1500.0 727.5,1560.0 675.5,1590.0 623.5,1560.0 623.5,1500.0 675.5,1470.0"/>
<polygon points="831.4,1500.0 831.4,1560.0 779.4,1590.0 727.5,1560.0 727.5,1500.0 779.4,1470.0"/>
<polygon points="935.3,1500.0 935.3,1560.0 883.3,1590.0 831.4,1560.0 831.4,1500.0 883.3,1470.0"/>
<polygon points="1039.2,1500.0 1039.2,1560.0 987.3,1590.0 935.3,1560.0 935.3,1500.0 987.3,1470.0"/>
<polygon points="1143.2,1500.0 1143.2,1560.0 1091.2,1590.0 1039.2,1560.0 1039.2,1500.0 1091.2,1470.0"/>
<polygon points="1247.1,1500.0 1247.1,1560.0 1195.1,1590.0 1143.2,1560.0 1143.2,1500.0 1195.1,1470.0"/>
<polygon points="1351.0,1500.0 1351.0,1560.0 1299.0,1590.0 1247.1,1560.0 1247.1,1500.0 1299.0,1470.0"/>
<polygon points="1454.9,1500.0 1454.9,1560.0 1403.0,1590.0 1351.0,1560.0 1351.0,1500.0 1403.0,1470.0"/>
<polygon points="1558.8,1500.0 1558.8,1560.0 1506.9,1590.0 1454.9,1560.0 1454.9,1500.0 1506.9,1470.0"/>
<polygon points="1662.8,1500.0 1662.8,1560.0 1610.8,1590.0 1558.8,1560.0 1558.8,1500.0 1610.8,1470.0"/>
<polygon points="1766.7,1500.0 1766.7,1560.0 1714.7,1590.0 1662.8,1560.0 1662.8,1500.0 1714.7,1470.0"/>
<polygon points="1870.6,1500.0 1870.6,1560.0 1818.7,1590.0 1766.7,1560.0 1766.7,1500.0 1818.7,1470.0"/>
<polygon points="1974.5,1500.0 1974.5,1560.0 1922.6,1590.0 1870.6,1560.0 1870.6,1500.0 1922.6,1470.0"/>
<polygon points="2078.5,1500.0 2078.5,1560.0 2026.5,1590.0 1974.5,1560.0 1974.5,1500.0 2026.5,1470.0"/>
<polygon points="2182.4,1500.0 2182.4,1560.0 2130.4,1590.0 2078.5,1560.0 2078.5,1500.0 2130.4,1470.0"/>
<polygon points="2286.3,1500.0 2286.3,1560.0 2234.3,1590.0 2182.4,1560.0 2182.4,1500.0 2234.3,1470.0"/>
<polygon points="2390.2,1500.0 2390.2,1560.0 2338.3,1590.0 2286.3,1560.0 2286.3,1500.0 2338.3,1470.0"/>
<polygon points="2494.2,1500.0 2494.2,1560.0 2442.2,1590.0 2390.2,1560.0 2390.2,1500.0 2442.2,1470.0"/>
<polygon points="2598.1,1500.0 2598.1,1560.0 2546.1,1590.0 2494.2,1560.0 2494.2,1500.0 2546.1,1470.0"/>
<polygon points="2702.0,1500.0 2702.0,1560.0 2650.0,1590.0 2598.1,1560.0 2598.1,1500.0 2650.0,1470.0"/>
<polygon points="2805.9,1500.0 2805.9,1560.0 2754.0,1590.0 2702.0,1560.0 2702.0,1500.0 2754.0,1470.0"/>
<polygon points="2909.8,1500.0 2909.8,1560.0 2857.9,1590.0 2805.9,1560.0 2805.9,1500.0 2857.9,1470.0"/>
<polygon points="3013.8,1500.0 3013.8,1560.0 2961.8,1590.0 2909.8,1560.0 2909.8,1500.0 2961.8,1470.0"/>
<polygon points="52.0,1590.0 52.0,1650.0 0.0,1680.0 -52.0,1650.0 -52.0,1590.0 -0.0,1560.0"/>
<polygon points="155.9,1590.0 155.9,1650.0 103.9,1680.0 52.0,1650.0 52.0,1590.0 103.9,1560.0"/>
<polygon points="259.8,1590.0 259.8,1650.0 207.8,1680.0 155.9,1650.0 155.9,1590.0 207.8,1560.0"/>
<polygon points="363.7,1590.0 363.7,1650.0 311.8,1680.0 259.8,1650.0 259.8,1590.0 311.8,1560.0"/>
<polygon points="467.7,1590.0 467.7,1650.0 415.7,1680.0 363.7,1650.0 363.7,1590.0 415.7,1560.0"/>
<polygon points="571.6,1590.0 571.6,1650.0 519.6,1680.0 467.7,1650.0 467.7,1590.0 519.6,1560.0"/>
<polygon points="675.5,1590.0 675.5,1650.0 623.5,1680.0 571.6,1650.0 571.6,1590.0 623.5,1560.0"/>
<polygon points="779.4,1590.0 779.4,1650.0 727.5,1680.0 675.5,1650.0 675.5,1590.0 727.5,1560.0"/>
<polygon points="883.3,1590.0 883.3,1650.0 831.4,1680.0 779.4,1650.0 779.4,1590.0 831.4,1560.0"/>
<polygon points="987.3,1590.0 987.3,1650.0 935.3,1680.0 883.3,1650.0 883.3,1590.0 935.3,1560.0"/>
<polygon points="1091.2,1590.0 1091.2,1650.0 1039.2,1680.0 987.3,1650.0 987.3,1590.0 1039.2,1560.0"/>
<polygon points="1195.1,1590.0 1195.1,1650.0 1143.2,1680.0 1091.2,1650.0 1091.2,1590.0 1143.2,1560.0"/>
<polygon points="1299.0,1590.0 1299.0,1650.0 1247.1,1680.0 1195.1,1650.0 1195.1,1590.0 1247.1,1560.0"/>
<polygon points="1403.0,1590.0 1403.0,1650.0 1351.0,1680.0 1299.0,1650.0 1299.0,1590.0 1351.0,1560.0"/>
<polygon points="1506.9,1590.0 1506.9,1650.0 1454.9,1680.0 1403.0,1650.0 1403.0,1590.0 1454.9,1560.0"/>
<polygon points="1610.8,1590.0 1610.8,1650.0 1558.8,1680.0 1506.9,1650.0 1506.9,1590.0 1558.8,1560.0"/>
<polygon points="1714.7,1590.0 1714.7,1650.0 1662.8,1680.0 1610.8,1650.0 1610.8,1590.0 1662.8,1560.0"/>
<polygon points="1818.7,1590.0 1818.7,1650.0 1766.7,1680.0 1714.7,1650.0 1714.7,1590.0 1766.7,1560.0"/>
<polygon points="1922.6,1590.0 1922.6,1650.0 1870.6,1680.0 1818.7,1650.0 1818.7,1590.0 1870.6,1560.0"/>
<polygon points="2026.5,1590.0 2026.5,1650.0 1974.5,1680.0 1922.6,1650.0 1922.6,1590.0 1974.5,1560.0"/>
<polygon points="2130.4,1590.0 2130.4,1650.0 2078.5,1680.0 2026.5,1650.0 2026.5,1590.0 2078.5,1560.0"/>
<polygon points="2234.3,1590.0 2234.3,1650.0 2182.4,1680.0 2130.4,1650.0 2130.4,1590.0 2182.4,1560.0"/>
<polygon points="2338.3,1590.0 2338.3,1650.0 2286.3,1680.0 2234.3,1650.0 2234.3,1590.0 2286.3,1560.0"/>
<polygon points="2442.2,1590.0 2442.2,1650.0 2390.2,1680.0 2338.3,1650.0 2338.3,1590.0 2390.2,1560.0"/>
<polygon points="2546.1,1590.0 2546.1,1650.0 2494.2,1680.0 2442.2,1650.0 2442.2,1590.0 2494.2,1560.0"/>
<polygon points="2650.0,1590.0 2650.0,1650.0 2598.1,1680.0 2546.1,1650.0 2546.1,1590.0 2598.1,1560.0"/>
<polygon points="2754.0,1590.0 2754.0,1650.0 2702.0,1680.0 2650.0,1650.0 2650.0,1590.0 2702.0,1560.0"/>
<polygon points="2857.9,1590.0 2857.9,1650.0 2805.9,1680.0 2754.0,1650.0 2754.0,1590.0 2805.9,1560.0"/>
<polygon points="2961.8,1590.0 2961.8,1650.0 2909.8,1680.0 2857.9,1650.0 2857.9,1590.0 2909.8,1560.0"/>
<polygon points="103.9,1680.0 103.9,1740.0 52.0,1770.0 -0.0,1740.0 0.0,1680.0 52.0,1650.0"/>
<polygon points="207.8,1680.0 207.8,1740.0 155.9,1770.0 103.9,1740.0 103.9,1680.0 155.9,1650.0"/>
<polygon points="311.8,1680.0 311.8,1740.0 259.8,1770.0 207.8,1740.0 207.8,1680.0 259.8,1650.0"/>
<polygon points="415.7,1680.0 415.7,1740.0 363.7,1770.0 311.8,1740.0 311.8,1680.0 363.7,1650.0"/>
<polygon points="519.6,1680.0 519.6,1740.0 467.7,1770.0 415.7,1740.0 415.7,1680.0 467.7,1650.0"/>
<polygon points="623.5,1680.0 623.5,1740.0 571.6,1770.0 519.6,1740.0 519.6,1680.0 571.6,1650.0"/>
<polygon points="727.5,1680.0 727.5,1740.0 675.5,1770.0 623.5,1740.0 623.5,1680.0 675.5,1650.0"/>
<polygon points="831.4,1680.0 831.4,1740.0 779.4,1770.0 727.5,1740.0 727.5,1680.0 779.4,1650.0"/>
<polygon points="935.3,1680.0 935.3,1740.0 883.3,1770.0 831.4,1740.0 831.4,1680.0 883.3,1650.0"/>
<polygon points="1039.2,1680.0 1039.2,1740.0 987.3,1770.0 935.3,1740.0 935.3,1680.0 987.3,1650.0"/>
<polygon points="1143.2,1680.0 1143.2,1740.0 1091.2,1770.0 1039.2,1740.0 1039.2,1680.0 1091.2,1650.0"/>
<polygon points="1247.1,1680.0 1247.1,1740.0 1195.1,1770.0 1143.2,1740.0 1143.2,1680.0 1195.1,1650.0"/>
<polygon points="1351.0,1680.0 1351.0,1740.0 1299.0,1770.0 1247.1,1740.0 1247.1,1680.0 1299.0,1650.0"/>
<polygon points="1454.9,1680.0 1454.9,1740.0 1403.0,1770.0 1351.0,1740.0 1351.0,1680.0 1403.0,1650.0"/>
<polygon points="1558.8,1680.0 1558.8,1740.0 1506.9,1770.0 1454.9,1740.0 1454.9,1680.0 1506.9,1650.0"/>
<polygon points="1662.8,1680.0 1662.8,1740.0 1610.8,1770.0 1558.8,1740.0 1558.8,1680.0 1610.8,1650.0"/>
<polygon points="1766.7,1680.0 1766.7,1740.0 1714.7,1770.0 1662.8,1740.0 1662.8,1680.0 1714.7,1650.0"/>
<polygon points="1870.6,1680.0 1870.6,1740.0 1818.7,1770.0 1766.7,1740.0 1766.7,1680.0 1818.7,1650.0"/>
<polygon points="1974.5,1680.0 1974.5,1740.0 1922.6,1770.0 1870.6,1740.0 1870.6,1680.0 1922.6,1650.0"/>
<polygon points="2078.5,1680.0 2078.5,1740.0 2026.5,1770.0 1974.5,1740.0 1974.5,1680.0 2026.5,1650.0"/>
<polygon points="2182.4,1680.0 2182.4,1740.0 2130.4,1770.0 2078.5,1740.0 2078.5,1680.0 2130.4,1650.0"/>
<polygon points="2286.3,1680.0 2286.3,1740.0 2234.3,1770.0 2182.4,1740.0 2182.4,1680.0 2234.3,1650.0"/>
<polygon points="2390.2,1680.0 2390.2,1740.0 2338.3,1770.0 2286.3,1740.0 2286.3,1680.0 2338.3,1650.0"/>
<polygon points="2494.2,1680.0 2494.2,1740.0 2442.2,1770.0 2390.2,1740.0 2390.2,1680.0 2442.2,1650.0"/>
<polygon points="2598.1,1680.0 2598.1,1740.0 2546.1,1770.0 2494.2,1740.0 2494.2,1680.0 2546.1,1650.0"/>
<polygon points="2702.0,1680.0 2702.0,1740.0 2650.0,1770.0 2598.1,1740.0 2598.1,1680.0 2650.0,1650.0"/>
<polygon points="2805.9,1680.0 2805.9,1740.0 2754.0,1770.0 2702.0,1740.0 2702.0,1680.0 2754.0,1650.0"/>
<polygon points="2909.8,1680.0 2909.8,1740.0 2857.9,1770.0 2805.9,1740.0 2805.9,1680.0 2857.9,1650.0"/>
<polygon points="3013.8,1680.0 3013.8,1740.0 2961.8,1770.0 2909.8,1740.0 2909.8,1680.0 2961.8,1650.0"/>
</g>
<g filter="url(#traceGlow)">
<path d="M 1641.0 812.8 L 1725.5 812.8 L 1725.5 738.8 L 1795.7 738.8" fill="none" stroke="#f0c674" stroke-width="2.0676402661837514" opacity="0.15" stroke-linecap="round"/><circle cx="1795.7" cy="738.8" r="4.5" fill="#f0c674" opacity="0.32"/><rect x="1788.7" y="731.8" width="14" height="14" fill="none" stroke="#f0c674" stroke-width="2" opacity="0.29"/>
<path d="M 1660.4 850.7 L 1740.2 850.7 L 1740.2 975.7 L 1854.7 975.7 L 1854.7 1057.7" fill="none" stroke="#f0c674" stroke-width="2.3522595936811745" opacity="0.14" stroke-linecap="round"/><circle cx="1854.7" cy="1057.7" r="4.5" fill="#f0c674" opacity="0.31"/>
<path d="M 1633.4 900.7 L 1691.0 958.4 L 1787.4 862.0" fill="none" stroke="#f0c674" stroke-width="1.4205695963941922" opacity="0.16" stroke-linecap="round"/><circle cx="1787.4" cy="862.0" r="4.5" fill="#f0c674" opacity="0.35"/>
<path d="M 1626.5 948.5 L 1706.8 1028.8 L 1595.6 1140.1 L 1664.8 1209.2" fill="none" stroke="#f0c674" stroke-width="2.3782260635288934" opacity="0.25" stroke-linecap="round"/><circle cx="1664.8" cy="1209.2" r="4.5" fill="#f0c674" opacity="0.55"/>
<path d="M 1591.4 980.7 L 1680.6 1069.9 L 1777.6 972.8" fill="none" stroke="#f0c674" stroke-width="2.411913037319691" opacity="0.30" stroke-linecap="round"/><circle cx="1777.6" cy="972.8" r="4.5" fill="#f0c674" opacity="0.65"/>
<path d="M 1557.6 1011.6 L 1626.2 1080.2 L 1569.0 1137.4" fill="none" stroke="#f0c674" stroke-width="2.2123664074961167" opacity="0.26" stroke-linecap="round"/><circle cx="1569.0" cy="1137.4" r="4.5" fill="#f0c674" opacity="0.58"/><rect x="1562.0" y="1130.4" width="14" height="14" fill="none" stroke="#f0c674" stroke-width="2" opacity="0.53"/>
<path d="M 1505.6 1021.4 L 1505.6 1097.8 L 1603.5 1097.8" fill="none" stroke="#f0c674" stroke-width="2.1899985262868373" opacity="0.29" stroke-linecap="round"/><circle cx="1603.5" cy="1097.8" r="4.5" fill="#f0c674" opacity="0.64"/>
<path d="M 1466.5 1009.5 L 1466.5 1109.7 L 1399.8 1109.7 L 1399.8 1261.0" fill="none" stroke="#f0c674" stroke-width="1.5764145072703828" opacity="0.23" stroke-linecap="round"/><circle cx="1399.8" cy="1261.0" r="4.5" fill="#f0c674" opacity="0.51"/>
<path d="M 1415.6 1014.3 L 1415.6 1098.9 L 1299.4 1098.9" fill="none" stroke="#f0c674" stroke-width="2.2711179551479352" opacity="0.22" stroke-linecap="round"/><circle cx="1299.4" cy="1098.9" r="4.5" fill="#f0c674" opacity="0.48"/>
<path d="M 1369.0 1039.2 L 1369.0 1150.1 L 1438.1 1150.1" fill="none" stroke="#f0c674" stroke-width="2.4194337825666654" opacity="0.17" stroke-linecap="round"/><circle cx="1438.1" cy="1150.1" r="4.5" fill="#f0c674" opacity="0.37"/><rect x="1431.1" y="1143.1" width="14" height="14" fill="none" stroke="#f0c674" stroke-width="2" opacity="0.34"/>
<path d="M 1324.6 1001.8 L 1255.2 1071.2 L 1368.0 1184.1 L 1288.2 1263.9" fill="none" stroke="#f0c674" stroke-width="2.184368433333474" opacity="0.16" stroke-linecap="round"/><circle cx="1288.2" cy="1263.9" r="4.5" fill="#f0c674" opacity="0.35"/>
<path d="M 1281.3 977.5 L 1231.0 1027.9 L 1157.9 954.7 L 1083.4 1029.2" fill="none" stroke="#f0c674" stroke-width="2.5634545285311487" opacity="0.28" stroke-linecap="round"/><circle cx="1083.4" cy="1029.2" r="4.5" fill="#f0c674" opacity="0.61"/>
<path d="M 1263.3 949.3 L 1177.8 1034.8 L 1231.1 1088.0 L 1134.7 1184.4 L 1215.3 1265.0" fill="none" stroke="#f0c674" stroke-width="2.0786279597982977" opacity="0.23" stroke-linecap="round"/><circle cx="1215.3" cy="1265.0" r="4.5" fill="#f0c674" opacity="0.50"/><rect x="1208.3" y="1258.0" width="14" height="14" fill="none" stroke="#f0c674" stroke-width="2" opacity="0.46"/>
<path d="M 1222.6 910.4 L 1163.3 969.7 L 1222.7 1029.2 L 1140.2 1111.7" fill="none" stroke="#f0c674" stroke-width="1.4113494876882424" opacity="0.23" stroke-linecap="round"/><circle cx="1140.2" cy="1111.7" r="4.5" fill="#f0c674" opacity="0.50"/><rect x="1133.2" y="1104.7" width="14" height="14" fill="none" stroke="#f0c674" stroke-width="2" opacity="0.45"/>
<path d="M 1213.2 852.1 L 1087.3 852.1 L 1087.3 1006.7" fill="none" stroke="#f0c674" stroke-width="1.6445736176220769" opacity="0.30" stroke-linecap="round"/><circle cx="1087.3" cy="1006.7" r="4.5" fill="#f0c674" opacity="0.65"/>
<path d="M 1218.5 816.4 L 1087.2 816.4 L 1087.2 716.5" fill="none" stroke="#f0c674" stroke-width="1.8695301090888554" opacity="0.23" stroke-linecap="round"/><circle cx="1087.2" cy="716.5" r="4.5" fill="#f0c674" opacity="0.51"/><rect x="1080.2" y="709.5" width="14" height="14" fill="none" stroke="#f0c674" stroke-width="2" opacity="0.47"/>
<path d="M 1230.0 771.4 L 1114.6 771.4 L 1114.6 890.2 L 1053.9 890.2 L 1053.9 1021.0" fill="none" stroke="#f0c674" stroke-width="1.5976243189545007" opacity="0.30" stroke-linecap="round"/><circle cx="1053.9" cy="1021.0" r="4.5" fill="#f0c674" opacity="0.67"/>
<path d="M 1245.1 733.1 L 1163.7 733.1 L 1163.7 659.8 L 1010.1 659.8" fill="none" stroke="#f0c674" stroke-width="1.615896415114442" opacity="0.23" stroke-linecap="round"/><circle cx="1010.1" cy="659.8" r="4.5" fill="#f0c674" opacity="0.50"/>
<path d="M 1251.6 684.5 L 1179.2 612.1 L 1103.8 687.6 L 1009.8 593.6" fill="none" stroke="#f0c674" stroke-width="1.3787964763001177" opacity="0.27" stroke-linecap="round"/><circle cx="1009.8" cy="593.6" r="4.5" fill="#f0c674" opacity="0.60"/>
<path d="M 1295.1 661.2 L 1221.0 587.1 L 1148.7 659.3 L 1086.6 597.2 L 1026.5 657.3" fill="none" stroke="#f0c674" stroke-width="1.8760699685694942" opacity="0.30" stroke-linecap="round"/><circle cx="1026.5" cy="657.3" r="4.5" fill="#f0c674" opacity="0.65"/>
<path d="M 1310.8 607.8 L 1199.9 496.8 L 1091.9 604.8" fill="none" stroke="#f0c674" stroke-width="1.5162044437850883" opacity="0.23" stroke-linecap="round"/><circle cx="1091.9" cy="604.8" r="4.5" fill="#f0c674" opacity="0.50"/><rect x="1084.9" y="597.8" width="14" height="14" fill="none" stroke="#f0c674" stroke-width="2" opacity="0.45"/>
<path d="M 1375.6 618.2 L 1375.6 558.0 L 1474.6 558.0 L 1474.6 405.3" fill="none" stroke="#f0c674" stroke-width="1.6708239976309964" opacity="0.27" stroke-linecap="round"/><circle cx="1474.6" cy="405.3" r="4.5" fill="#f0c674" opacity="0.58"/>
<path d="M 1422.7 584.2 L 1422.7 508.7 L 1333.0 508.7 L 1333.0 351.8" fill="none" stroke="#f0c674" stroke-width="2.2723682284927835" opacity="0.15" stroke-linecap="round"/><circle cx="1333.0" cy="351.8" r="4.5" fill="#f0c674" opacity="0.33"/>
<path d="M 1464.5 577.2 L 1464.5 511.5 L 1353.8 511.5" fill="none" stroke="#f0c674" stroke-width="1.3890777325149302" opacity="0.15" stroke-linecap="round"/><circle cx="1353.8" cy="511.5" r="4.5" fill="#f0c674" opacity="0.33"/>
<path d="M 1511.3 583.3 L 1511.3 498.7 L 1630.7 498.7 L 1630.7 376.7 L 1732.6 376.7" fill="none" stroke="#f0c674" stroke-width="2.5151181350573557" opacity="0.18" stroke-linecap="round"/><circle cx="1732.6" cy="376.7" r="4.5" fill="#f0c674" opacity="0.39"/>
<path d="M 1543.0 620.3 L 1617.8 545.6 L 1509.6 437.5 L 1618.2 328.9" fill="none" stroke="#f0c674" stroke-width="1.895771179404162" opacity="0.32" stroke-linecap="round"/><circle cx="1618.2" cy="328.9" r="4.5" fill="#f0c674" opacity="0.70"/>
<path d="M 1572.8 649.2 L 1624.6 597.4 L 1557.5 530.3 L 1604.8 483.0" fill="none" stroke="#f0c674" stroke-width="1.7803852153605493" opacity="0.17" stroke-linecap="round"/><circle cx="1604.8" cy="483.0" r="4.5" fill="#f0c674" opacity="0.37"/>
<path d="M 1624.2 681.8 L 1667.2 638.8 L 1567.0 538.6 L 1630.6 475.0 L 1541.3 385.7" fill="none" stroke="#f0c674" stroke-width="1.643805697933266" opacity="0.30" stroke-linecap="round"/><circle cx="1541.3" cy="385.7" r="4.5" fill="#f0c674" opacity="0.66"/>
<path d="M 1629.9 717.5 L 1723.1 624.3 L 1779.9 681.1" fill="none" stroke="#f0c674" stroke-width="1.9570317755273834" opacity="0.19" stroke-linecap="round"/><circle cx="1779.9" cy="681.1" r="4.5" fill="#f0c674" opacity="0.41"/>
<path d="M 1658.1 753.3 L 1722.5 753.3 L 1722.5 846.6 L 1795.6 846.6" fill="none" stroke="#f0c674" stroke-width="1.5100565691560521" opacity="0.22" stroke-linecap="round"/><circle cx="1795.6" cy="846.6" r="4.5" fill="#f0c674" opacity="0.48"/>
<path d="M 1615.4 181.2 L 1782.9 181.2 L 1782.9 60.3 L 1941.4 60.3 L 1941.4 -65.4 L 2010.7 -65.4" fill="none" stroke="#f0c674" stroke-width="1.0501946298026295" opacity="0.13" stroke-linecap="round"/><circle cx="2010.7" cy="-65.4" r="4.5" fill="#f0c674" opacity="0.29"/>
<path d="M 2799.9 64.6 L 2741.6 122.9 L 2786.4 167.7 L 2679.4 274.8 L 2796.0 391.4 L 2723.3 464.1" fill="none" stroke="#f0c674" stroke-width="2.110916587083468" opacity="0.11" stroke-linecap="round"/><circle cx="2723.3" cy="464.1" r="4.5" fill="#f0c674" opacity="0.25"/><rect x="2716.3" y="457.1" width="14" height="14" fill="none" stroke="#f0c674" stroke-width="2" opacity="0.23"/>
<path d="M 2303.7 286.8 L 2200.6 389.9 L 2266.5 455.8 L 2145.6 576.7" fill="none" stroke="#f0c674" stroke-width="1.3201668515133664" opacity="0.19" stroke-linecap="round"/><circle cx="2145.6" cy="576.7" r="4.5" fill="#f0c674" opacity="0.42"/><rect x="2138.6" y="569.7" width="14" height="14" fill="none" stroke="#f0c674" stroke-width="2" opacity="0.38"/>
<path d="M 2511.8 1390.9 L 2511.8 1486.4 L 2668.5 1486.4 L 2668.5 1649.6 L 2747.5 1649.6" fill="none" stroke="#f0c674" stroke-width="1.4781591742777402" opacity="0.12" stroke-linecap="round"/><circle cx="2747.5" cy="1649.6" r="4.5" fill="#f0c674" opacity="0.26"/><rect x="2740.5" y="1642.6" width="14" height="14" fill="none" stroke="#f0c674" stroke-width="2" opacity="0.24"/>
<path d="M 2227.2 568.9 L 2049.6 568.9 L 2049.6 688.6 L 1877.5 688.6 L 1877.5 753.6 L 1701.4 753.6" fill="none" stroke="#f0c674" stroke-width="1.6967076804864494" opacity="0.22" stroke-linecap="round"/><circle cx="1701.4" cy="753.6" r="4.5" fill="#f0c674" opacity="0.48"/><rect x="1694.4" y="746.6" width="14" height="14" fill="none" stroke="#f0c674" stroke-width="2" opacity="0.44"/>
<path d="M 1718.1 560.0 L 1718.1 431.2 L 1834.6 431.2 L 1834.6 331.1 L 1959.6 331.1" fill="none" stroke="#f0c674" stroke-width="1.0532638404558774" opacity="0.14" stroke-linecap="round"/><circle cx="1959.6" cy="331.1" r="4.5" fill="#f0c674" opacity="0.31"/>
<path d="M 2322.8 1112.7 L 2459.9 1112.7 L 2459.9 1210.1 L 2519.0 1210.1 L 2519.0 1346.4 L 2612.0 1346.4" fill="none" stroke="#f0c674" stroke-width="1.7960649715186534" opacity="0.10" stroke-linecap="round"/><circle cx="2612.0" cy="1346.4" r="4.5" fill="#f0c674" opacity="0.21"/>
<path d="M 939.4 1129.5 L 834.7 1129.5 L 834.7 1301.7 L 696.7 1301.7" fill="none" stroke="#f0c674" stroke-width="1.7386178991416568" opacity="0.12" stroke-linecap="round"/><circle cx="696.7" cy="1301.7" r="4.5" fill="#f0c674" opacity="0.27"/>
<path d="M 1.2 464.8 L -90.0 555.9 L -154.9 490.9 L -230.9 566.9 L -328.4 469.4" fill="none" stroke="#f0c674" stroke-width="1.9524824789272026" opacity="0.21" stroke-linecap="round"/><circle cx="-328.4" cy="469.4" r="4.5" fill="#f0c674" opacity="0.47"/>
<path d="M 1897.5 459.7 L 1831.3 393.6 L 1720.7 504.2 L 1616.3 399.8 L 1519.1 497.0" fill="none" stroke="#f0c674" stroke-width="1.9678754734915191" opacity="0.10" stroke-linecap="round"/><circle cx="1519.1" cy="497.0" r="4.5" fill="#f0c674" opacity="0.22"/><rect x="1512.1" y="490.0" width="14" height="14" fill="none" stroke="#f0c674" stroke-width="2" opacity="0.20"/>
<path d="M 2833.7 990.3 L 2833.7 886.4 L 2965.6 886.4 L 2965.6 811.1 L 3106.1 811.1" fill="none" stroke="#f0c674" stroke-width="1.4795834354518453" opacity="0.10" stroke-linecap="round"/><circle cx="3106.1" cy="811.1" r="4.5" fill="#f0c674" opacity="0.22"/>
<path d="M 2570.9 1393.9 L 2626.3 1338.4 L 2517.1 1229.2 L 2616.4 1129.8 L 2538.3 1051.8" fill="none" stroke="#f0c674" stroke-width="2.1009640173465285" opacity="0.10" stroke-linecap="round"/><circle cx="2538.3" cy="1051.8" r="4.5" fill="#f0c674" opacity="0.21"/><rect x="2531.3" y="1044.8" width="14" height="14" fill="none" stroke="#f0c674" stroke-width="2" opacity="0.19"/>
<path d="M 1609.7 514.0 L 1609.7 384.4 L 1753.2 384.4 L 1753.2 268.8 L 1911.2 268.8" fill="none" stroke="#f0c674" stroke-width="2.076649723879915" opacity="0.18" stroke-linecap="round"/><circle cx="1911.2" cy="268.8" r="4.5" fill="#f0c674" opacity="0.41"/>
<path d="M 746.5 400.5 L 666.6 320.6 L 609.2 378.0 L 533.4 302.2 L 432.5 403.1" fill="none" stroke="#f0c674" stroke-width="1.3260581284986217" opacity="0.12" stroke-linecap="round"/><circle cx="432.5" cy="403.1" r="4.5" fill="#f0c674" opacity="0.27"/>
<path d="M 398.5 374.6 L 398.5 296.8 L 502.5 296.8 L 502.5 203.8 L 613.0 203.8 L 613.0 145.7" fill="none" stroke="#f0c674" stroke-width="1.4673721752003295" opacity="0.19" stroke-linecap="round"/><circle cx="613.0" cy="145.7" r="4.5" fill="#f0c674" opacity="0.41"/>
<path d="M 56.3 1426.7 L 20.4 1390.8 L 88.0 1323.1 L -16.6 1218.5 L 97.2 1104.7" fill="none" stroke="#f0c674" stroke-width="1.645864681132278" opacity="0.18" stroke-linecap="round"/><circle cx="97.2" cy="1104.7" r="4.5" fill="#f0c674" opacity="0.40"/>
<path d="M 2585.7 790.9 L 2585.7 844.7 L 2679.4 844.7 L 2679.4 983.0 L 2782.0 983.0" fill="none" stroke="#f0c674" stroke-width="2.00860679567507" opacity="0.21" stroke-linecap="round"/><circle cx="2782.0" cy="983.0" r="4.5" fill="#f0c674" opacity="0.46"/>
<path d="M 1538.3 1469.2 L 1500.4 1431.4 L 1594.9 1336.9 L 1547.0 1289.1 L 1624.8 1211.3 L 1584.9 1171.3" fill="none" stroke="#f0c674" stroke-width="1.3928232003300811" opacity="0.14" stroke-linecap="round"/><circle cx="1584.9" cy="1171.3" r="4.5" fill="#f0c674" opacity="0.32"/>
<path d="M 2533.4 450.8 L 2616.2 450.8 L 2616.2 511.4 L 2668.7 511.4 L 2668.7 631.5" fill="none" stroke="#f0c674" stroke-width="1.2690665988636978" opacity="0.09" stroke-linecap="round"/><circle cx="2668.7" cy="631.5" r="4.5" fill="#f0c674" opacity="0.20"/>
<path d="M 115.9 50.3 L 115.9 181.0 L 34.9 181.0" fill="none" stroke="#f0c674" stroke-width="1.803350613543893" opacity="0.16" stroke-linecap="round"/><circle cx="34.9" cy="181.0" r="4.5" fill="#f0c674" opacity="0.35"/><rect x="27.9" y="174.0" width="14" height="14" fill="none" stroke="#f0c674" stroke-width="2" opacity="0.32"/>
<path d="M 2014.5 1242.4 L 2138.4 1366.3 L 2037.0 1467.7 L 2143.9 1574.6 L 2093.5 1625.0" fill="none" stroke="#f0c674" stroke-width="1.1297184995891278" opacity="0.08" stroke-linecap="round"/><circle cx="2093.5" cy="1625.0" r="4.5" fill="#f0c674" opacity="0.18"/>
<path d="M 1950.8 1552.2 L 1897.2 1605.8 L 1807.4 1516.0 L 1695.7 1627.7 L 1638.0 1570.1 L 1538.6 1669.5" fill="none" stroke="#f0c674" stroke-width="2.020351886906556" opacity="0.16" stroke-linecap="round"/><circle cx="1538.6" cy="1669.5" r="4.5" fill="#f0c674" opacity="0.36"/><rect x="1531.6" y="1662.5" width="14" height="14" fill="none" stroke="#f0c674" stroke-width="2" opacity="0.33"/>
<path d="M 2833.5 1267.9 L 2737.3 1364.0 L 2695.6 1322.3 L 2600.7 1417.2 L 2564.2 1380.7" fill="none" stroke="#f0c674" stroke-width="1.98679710170807" opacity="0.09" stroke-linecap="round"/><circle cx="2564.2" cy="1380.7" r="4.5" fill="#f0c674" opacity="0.21"/>
<path d="M 1830.5 1342.5 L 1830.5 1269.6 L 1948.3 1269.6 L 1948.3 1135.0 L 2078.4 1135.0" fill="none" stroke="#f0c674" stroke-width="1.5578485259614094" opacity="0.20" stroke-linecap="round"/><circle cx="2078.4" cy="1135.0" r="4.5" fill="#f0c674" opacity="0.43"/>
<path d="M 928.2 397.7 L 1044.6 281.3 L 1102.4 339.1 L 1180.5 261.0" fill="none" stroke="#f0c674" stroke-width="1.4036759438696504" opacity="0.15" stroke-linecap="round"/><circle cx="1180.5" cy="261.0" r="4.5" fill="#f0c674" opacity="0.33"/>
<path d="M 744.1 453.0 L 657.6 366.6 L 574.8 449.4 L 521.8 396.5" fill="none" stroke="#f0c674" stroke-width="1.8640895969250333" opacity="0.15" stroke-linecap="round"/><circle cx="521.8" cy="396.5" r="4.5" fill="#f0c674" opacity="0.33"/>
<path d="M 1989.0 1046.4 L 1926.9 1046.4 L 1926.9 1125.2" fill="none" stroke="#f0c674" stroke-width="1.367447236156106" opacity="0.16" stroke-linecap="round"/><circle cx="1926.9" cy="1125.2" r="4.5" fill="#f0c674" opacity="0.36"/>
<path d="M 2148.3 535.9 L 2148.3 446.0 L 2228.3 446.0 L 2228.3 302.3" fill="none" stroke="#f0c674" stroke-width="1.1434656895060633" opacity="0.16" stroke-linecap="round"/><circle cx="2228.3" cy="302.3" r="4.5" fill="#f0c674" opacity="0.34"/>
<path d="M 533.2 350.5 L 406.6 350.5 L 406.6 201.7 L 279.0 201.7 L 279.0 24.2 L 120.8 24.2" fill="none" stroke="#f0c674" stroke-width="1.2729797961790656" opacity="0.11" stroke-linecap="round"/><circle cx="120.8" cy="24.2" r="4.5" fill="#f0c674" opacity="0.23"/><rect x="113.8" y="17.2" width="14" height="14" fill="none" stroke="#f0c674" stroke-width="2" opacity="0.21"/>
<path d="M 1538.3 444.4 L 1626.3 444.4 L 1626.3 271.7 L 1759.2 271.7 L 1759.2 123.8" fill="none" stroke="#f0c674" stroke-width="2.047263681998242" opacity="0.16" stroke-linecap="round"/><circle cx="1759.2" cy="123.8" r="4.5" fill="#f0c674" opacity="0.35"/>
<path d="M 1268.6 298.7 L 1333.4 298.7 L 1333.4 240.2 L 1447.3 240.2 L 1447.3 115.2" fill="none" stroke="#f0c674" stroke-width="1.1820724083411478" opacity="0.19" stroke-linecap="round"/><circle cx="1447.3" cy="115.2" r="4.5" fill="#f0c674" opacity="0.43"/>
<path d="M 245.3 402.1 L 116.5 402.1 L 116.5 249.3 L 37.2 249.3 L 37.2 131.3" fill="none" stroke="#f0c674" stroke-width="2.090205253148565" opacity="0.12" stroke-linecap="round"/><circle cx="37.2" cy="131.3" r="4.5" fill="#f0c674" opacity="0.27"/>
<path d="M 173.5 1555.4 L 266.3 1648.2 L 326.0 1588.5 L 368.8 1631.4" fill="none" stroke="#f0c674" stroke-width="1.2085762579917214" opacity="0.09" stroke-linecap="round"/><circle cx="368.8" cy="1631.4" r="4.5" fill="#f0c674" opacity="0.20"/><rect x="361.8" y="1624.4" width="14" height="14" fill="none" stroke="#f0c674" stroke-width="2" opacity="0.18"/>
<path d="M 838.8 375.0 L 838.8 213.2 L 779.6 213.2 L 779.6 132.9 L 695.2 132.9 L 695.2 -20.0" fill="none" stroke="#f0c674" stroke-width="1.510166759325054" opacity="0.16" stroke-linecap="round"/><circle cx="695.2" cy="-20.0" r="4.5" fill="#f0c674" opacity="0.34"/>
<path d="M 2616.2 1339.1 L 2724.4 1447.4 L 2634.4 1537.4 L 2745.5 1648.5" fill="none" stroke="#f0c674" stroke-width="1.526984138408485" opacity="0.15" stroke-linecap="round"/><circle cx="2745.5" cy="1648.5" r="4.5" fill="#f0c674" opacity="0.32"/>
<path d="M 1159.2 441.0 L 1098.8 441.0 L 1098.8 385.9 L 992.6 385.9 L 992.6 294.0" fill="none" stroke="#f0c674" stroke-width="1.0310378708660026" opacity="0.11" stroke-linecap="round"/><circle cx="992.6" cy="294.0" r="4.5" fill="#f0c674" opacity="0.25"/>
<path d="M 2478.3 951.1 L 2635.1 951.1 L 2635.1 1076.1 L 2784.3 1076.1 L 2784.3 1148.8 L 2901.7 1148.8" fill="none" stroke="#f0c674" stroke-width="2.0992873455121215" opacity="0.11" stroke-linecap="round"/><circle cx="2901.7" cy="1148.8" r="4.5" fill="#f0c674" opacity="0.23"/>
<path d="M 1828.2 796.6 L 1901.1 869.5 L 1965.9 804.6 L 2010.9 849.6" fill="none" stroke="#f0c674" stroke-width="1.3957643962947586" opacity="0.18" stroke-linecap="round"/><circle cx="2010.9" cy="849.6" r="4.5" fill="#f0c674" opacity="0.39"/>
<path d="M 2722.2 1318.0 L 2660.7 1318.0 L 2660.7 1400.8 L 2595.6 1400.8 L 2595.6 1551.2" fill="none" stroke="#f0c674" stroke-width="1.789192463779755" opacity="0.16" stroke-linecap="round"/><circle cx="2595.6" cy="1551.2" r="4.5" fill="#f0c674" opacity="0.34"/>
<path d="M 540.2 586.1 L 540.2 478.6 L 596.9 478.6 L 596.9 393.9 L 664.0 393.9 L 664.0 306.5" fill="none" stroke="#f0c674" stroke-width="1.1457113000351438" opacity="0.22" stroke-linecap="round"/><circle cx="664.0" cy="306.5" r="4.5" fill="#f0c674" opacity="0.48"/>
<path d="M 689.2 256.6 L 586.1 256.6 L 586.1 335.8 L 426.8 335.8 L 426.8 400.5" fill="none" stroke="#f0c674" stroke-width="1.7772516265405105" opacity="0.10" stroke-linecap="round"/><circle cx="426.8" cy="400.5" r="4.5" fill="#f0c674" opacity="0.22"/>
<path d="M 840.6 1142.8 L 715.1 1268.2 L 772.9 1326.0 L 686.8 1412.0 L 757.4 1482.6" fill="none" stroke="#f0c674" stroke-width="2.036832321314306" opacity="0.12" stroke-linecap="round"/><circle cx="757.4" cy="1482.6" r="4.5" fill="#f0c674" opacity="0.26"/>
<path d="M 1195.0 1513.5 L 1108.3 1513.5 L 1108.3 1424.7" fill="none" stroke="#f0c674" stroke-width="2.038312713640291" opacity="0.14" stroke-linecap="round"/><circle cx="1108.3" cy="1424.7" r="4.5" fill="#f0c674" opacity="0.31"/>
<path d="M 957.4 1235.9 L 842.1 1351.1 L 716.6 1225.6 L 659.3 1282.9" fill="none" stroke="#f0c674" stroke-width="1.2802749352694718" opacity="0.19" stroke-linecap="round"/><circle cx="659.3" cy="1282.9" r="4.5" fill="#f0c674" opacity="0.41"/><rect x="652.3" y="1275.9" width="14" height="14" fill="none" stroke="#f0c674" stroke-width="2" opacity="0.38"/>
<path d="M 2144.8 1142.5 L 2144.8 964.0 L 1991.7 964.0 L 1991.7 829.2 L 1922.0 829.2" fill="none" stroke="#f0c674" stroke-width="1.1514955237712665" opacity="0.22" stroke-linecap="round"/><circle cx="1922.0" cy="829.2" r="4.5" fill="#f0c674" opacity="0.47"/>
<path d="M 289.1 1369.0 L 325.8 1405.7 L 374.4 1357.1 L 489.8 1472.5 L 614.4 1348.0" fill="none" stroke="#f0c674" stroke-width="1.5633887211816784" opacity="0.22" stroke-linecap="round"/><circle cx="614.4" cy="1348.0" r="4.5" fill="#f0c674" opacity="0.47"/>
<path d="M 1995.0 1052.7 L 2109.3 938.4 L 2039.1 868.1 L 2103.5 803.6 L 2002.1 702.2 L 2107.3 597.0" fill="none" stroke="#f0c674" stroke-width="1.740951353923268" opacity="0.11" stroke-linecap="round"/><circle cx="2107.3" cy="597.0" r="4.5" fill="#f0c674" opacity="0.25"/>
<path d="M 827.7 368.5 L 932.9 473.8 L 1033.0 373.7" fill="none" stroke="#f0c674" stroke-width="1.532414261994047" opacity="0.18" stroke-linecap="round"/><circle cx="1033.0" cy="373.7" r="4.5" fill="#f0c674" opacity="0.39"/>
<path d="M 132.5 1289.8 L 132.5 1395.7 L 214.2 1395.7 L 214.2 1499.3" fill="none" stroke="#f0c674" stroke-width="1.203980378881717" opacity="0.09" stroke-linecap="round"/><circle cx="214.2" cy="1499.3" r="4.5" fill="#f0c674" opacity="0.20"/>
<path d="M 1784.8 390.1 L 1841.5 333.4 L 1747.5 239.5 L 1825.1 161.9" fill="none" stroke="#f0c674" stroke-width="2.0786902380403856" opacity="0.15" stroke-linecap="round"/><circle cx="1825.1" cy="161.9" r="4.5" fill="#f0c674" opacity="0.32"/>
<path d="M 1574.2 119.7 L 1663.1 119.7 L 1663.1 294.7 L 1802.8 294.7 L 1802.8 404.1" fill="none" stroke="#f0c674" stroke-width="1.2390603989306708" opacity="0.13" stroke-linecap="round"/><circle cx="1802.8" cy="404.1" r="4.5" fill="#f0c674" opacity="0.29"/>
<path d="M 683.2 926.5 L 620.7 864.0 L 495.4 989.3 L 399.5 893.4 L 339.0 954.0 L 251.6 866.6" fill="none" stroke="#f0c674" stroke-width="2.092740344462453" opacity="0.18" stroke-linecap="round"/><circle cx="251.6" cy="866.6" r="4.5" fill="#f0c674" opacity="0.41"/>
<path d="M 2600.5 1256.7 L 2600.5 1335.2 L 2675.2 1335.2 L 2675.2 1417.8" fill="none" stroke="#f0c674" stroke-width="1.7538977244242782" opacity="0.21" stroke-linecap="round"/><circle cx="2675.2" cy="1417.8" r="4.5" fill="#f0c674" opacity="0.45"/>
<path d="M 889.7 714.1 L 842.3 666.7 L 961.3 547.7 L 895.9 482.3 L 969.4 408.8 L 915.6 355.0" fill="none" stroke="#f0c674" stroke-width="1.6370228484433422" opacity="0.21" stroke-linecap="round"/><circle cx="915.6" cy="355.0" r="4.5" fill="#f0c674" opacity="0.46"/>
<path d="M 740.1 1336.0 L 593.0 1336.0 L 593.0 1430.0 L 528.0 1430.0" fill="none" stroke="#f0c674" stroke-width="1.1689084180070592" opacity="0.22" stroke-linecap="round"/><circle cx="528.0" cy="1430.0" r="4.5" fill="#f0c674" opacity="0.47"/>
<path d="M 2085.7 1587.5 L 2183.3 1587.5 L 2183.3 1740.3 L 2235.1 1740.3 L 2235.1 1860.0" fill="none" stroke="#f0c674" stroke-width="1.442302790339247" opacity="0.18" stroke-linecap="round"/><circle cx="2235.1" cy="1860.0" r="4.5" fill="#f0c674" opacity="0.41"/>
<path d="M 1097.4 1034.4 L 1040.5 1091.3 L 1078.2 1129.0 L 961.5 1245.6 L 1048.5 1332.6 L 929.0 1452.0" fill="none" stroke="#f0c674" stroke-width="1.7771828567673298" opacity="0.17" stroke-linecap="round"/><circle cx="929.0" cy="1452.0" r="4.5" fill="#f0c674" opacity="0.37"/>
<path d="M 2019.1 1051.8 L 2141.4 1174.1 L 2078.1 1237.4" fill="none" stroke="#f0c674" stroke-width="1.1393445768701314" opacity="0.11" stroke-linecap="round"/><circle cx="2078.1" cy="1237.4" r="4.5" fill="#f0c674" opacity="0.25"/>
<path d="M 1119.3 601.0 L 1292.3 601.0 L 1292.3 496.6 L 1438.8 496.6 L 1438.8 426.5 L 1542.7 426.5" fill="none" stroke="#f0c674" stroke-width="2.000431699955586" opacity="0.17" stroke-linecap="round"/><circle cx="1542.7" cy="426.5" r="4.5" fill="#f0c674" opacity="0.37"/>
<path d="M 805.7 1118.3 L 805.7 1291.8 L 644.4 1291.8 L 644.4 1354.7 L 505.3 1354.7" fill="none" stroke="#f0c674" stroke-width="1.0726601069999304" opacity="0.12" stroke-linecap="round"/><circle cx="505.3" cy="1354.7" r="4.5" fill="#f0c674" opacity="0.26"/>
<path d="M 2733.2 1335.2 L 2827.5 1429.5 L 2737.2 1519.8 L 2774.6 1557.1" fill="none" stroke="#f0c674" stroke-width="1.2922826765968285" opacity="0.10" stroke-linecap="round"/><circle cx="2774.6" cy="1557.1" r="4.5" fill="#f0c674" opacity="0.21"/>
<path d="M 197.6 1239.6 L 197.6 1395.3 L 277.9 1395.3 L 277.9 1545.9" fill="none" stroke="#f0c674" stroke-width="1.3327298151708196" opacity="0.22" stroke-linecap="round"/><circle cx="277.9" cy="1545.9" r="4.5" fill="#f0c674" opacity="0.48"/>
<path d="M 1555.8 1293.6 L 1603.3 1341.1 L 1671.6 1272.8" fill="none" stroke="#f0c674" stroke-width="1.7066235064605308" opacity="0.08" stroke-linecap="round"/><circle cx="1671.6" cy="1272.8" r="4.5" fill="#f0c674" opacity="0.18"/>
<path d="M 365.1 682.0 L 444.2 761.1 L 551.1 654.2" fill="none" stroke="#f0c674" stroke-width="1.5424065038905028" opacity="0.11" stroke-linecap="round"/><circle cx="551.1" cy="654.2" r="4.5" fill="#f0c674" opacity="0.24"/>
<path d="M 2094.5 1472.2 L 2017.0 1394.7 L 2141.0 1270.7 L 2100.0 1229.8" fill="none" stroke="#f0c674" stroke-width="2.0167582518006917" opacity="0.14" stroke-linecap="round"/><circle cx="2100.0" cy="1229.8" r="4.5" fill="#f0c674" opacity="0.31"/><rect x="2093.0" y="1222.8" width="14" height="14" fill="none" stroke="#f0c674" stroke-width="2" opacity="0.28"/>
<path d="M 2051.7 718.6 L 2143.0 627.3 L 2184.4 668.7 L 2245.0 608.1" fill="none" stroke="#f0c674" stroke-width="1.457085278582225" opacity="0.16" stroke-linecap="round"/><circle cx="2245.0" cy="608.1" r="4.5" fill="#f0c674" opacity="0.36"/>
<path d="M 2284.1 185.4 L 2182.5 83.7 L 2237.6 28.6 L 2160.8 -48.3 L 2217.1 -104.6" fill="none" stroke="#f0c674" stroke-width="1.992903069736054" opacity="0.14" stroke-linecap="round"/><circle cx="2217.1" cy="-104.6" r="4.5" fill="#f0c674" opacity="0.30"/>
<path d="M 900.1 506.3 L 900.1 645.6 L 1011.8 645.6 L 1011.8 707.4" fill="none" stroke="#f0c674" stroke-width="1.1118761220444129" opacity="0.09" stroke-linecap="round"/><circle cx="1011.8" cy="707.4" r="4.5" fill="#f0c674" opacity="0.21"/>
<path d="M 2337.9 901.3 L 2250.9 814.3 L 2347.9 717.4 L 2274.7 644.3 L 2390.4 528.6" fill="none" stroke="#f0c674" stroke-width="2.0417105786428777" opacity="0.18" stroke-linecap="round"/><circle cx="2390.4" cy="528.6" r="4.5" fill="#f0c674" opacity="0.40"/>
<path d="M 1729.2 569.7 L 1679.6 520.1 L 1759.3 440.4 L 1646.0 327.2" fill="none" stroke="#f0c674" stroke-width="2.014448102321614" opacity="0.13" stroke-linecap="round"/><circle cx="1646.0" cy="327.2" r="4.5" fill="#f0c674" opacity="0.29"/>
</g>
<circle cx="1440" cy="810" r="360" fill="url(#coreGlow)"/>
<circle cx="1440" cy="810" r="164" fill="#f0c674" opacity="0.16" filter="url(#wideGlow)"/>
<circle cx="1440" cy="810" r="164" fill="#101114" stroke="url(#ringGrad)" stroke-width="5" filter="url(#softGlow)"/>
<circle cx="1440" cy="810" r="180" fill="none" stroke="#f0c674" stroke-width="1.5" opacity="0.45"/>
<g stroke="#f0c674" stroke-width="2.2" opacity="0.55">
<line x1="1608.0" y1="810.0" x2="1618.0" y2="810.0"/>
<line x1="1607.1" y1="827.6" x2="1617.0" y2="828.6"/>
<line x1="1604.3" y1="844.9" x2="1614.1" y2="847.0"/>
<line x1="1599.8" y1="861.9" x2="1609.3" y2="865.0"/>
<line x1="1593.5" y1="878.3" x2="1602.6" y2="882.4"/>
<line x1="1585.5" y1="894.0" x2="1594.2" y2="899.0"/>
<line x1="1575.9" y1="908.7" x2="1584.0" y2="914.6"/>
<line x1="1564.8" y1="922.4" x2="1572.3" y2="929.1"/>
<line x1="1552.4" y1="934.8" x2="1559.1" y2="942.3"/>
<line x1="1538.7" y1="945.9" x2="1544.6" y2="954.0"/>
<line x1="1524.0" y1="955.5" x2="1529.0" y2="964.2"/>
<line x1="1508.3" y1="963.5" x2="1512.4" y2="972.6"/>
<line x1="1491.9" y1="969.8" x2="1495.0" y2="979.3"/>
<line x1="1474.9" y1="974.3" x2="1477.0" y2="984.1"/>
<line x1="1457.6" y1="977.1" x2="1458.6" y2="987.0"/>
<line x1="1440.0" y1="978.0" x2="1440.0" y2="988.0"/>
<line x1="1422.4" y1="977.1" x2="1421.4" y2="987.0"/>
<line x1="1405.1" y1="974.3" x2="1403.0" y2="984.1"/>
<line x1="1388.1" y1="969.8" x2="1385.0" y2="979.3"/>
<line x1="1371.7" y1="963.5" x2="1367.6" y2="972.6"/>
<line x1="1356.0" y1="955.5" x2="1351.0" y2="964.2"/>
<line x1="1341.3" y1="945.9" x2="1335.4" y2="954.0"/>
<line x1="1327.6" y1="934.8" x2="1320.9" y2="942.3"/>
<line x1="1315.2" y1="922.4" x2="1307.7" y2="929.1"/>
<line x1="1304.1" y1="908.7" x2="1296.0" y2="914.6"/>
<line x1="1294.5" y1="894.0" x2="1285.8" y2="899.0"/>
<line x1="1286.5" y1="878.3" x2="1277.4" y2="882.4"/>
<line x1="1280.2" y1="861.9" x2="1270.7" y2="865.0"/>
<line x1="1275.7" y1="844.9" x2="1265.9" y2="847.0"/>
<line x1="1272.9" y1="827.6" x2="1263.0" y2="828.6"/>
<line x1="1272.0" y1="810.0" x2="1262.0" y2="810.0"/>
<line x1="1272.9" y1="792.4" x2="1263.0" y2="791.4"/>
<line x1="1275.7" y1="775.1" x2="1265.9" y2="773.0"/>
<line x1="1280.2" y1="758.1" x2="1270.7" y2="755.0"/>
<line x1="1286.5" y1="741.7" x2="1277.4" y2="737.6"/>
<line x1="1294.5" y1="726.0" x2="1285.8" y2="721.0"/>
<line x1="1304.1" y1="711.3" x2="1296.0" y2="705.4"/>
<line x1="1315.2" y1="697.6" x2="1307.7" y2="690.9"/>
<line x1="1327.6" y1="685.2" x2="1320.9" y2="677.7"/>
<line x1="1341.3" y1="674.1" x2="1335.4" y2="666.0"/>
<line x1="1356.0" y1="664.5" x2="1351.0" y2="655.8"/>
<line x1="1371.7" y1="656.5" x2="1367.6" y2="647.4"/>
<line x1="1388.1" y1="650.2" x2="1385.0" y2="640.7"/>
<line x1="1405.1" y1="645.7" x2="1403.0" y2="635.9"/>
<line x1="1422.4" y1="642.9" x2="1421.4" y2="633.0"/>
<line x1="1440.0" y1="642.0" x2="1440.0" y2="632.0"/>
<line x1="1457.6" y1="642.9" x2="1458.6" y2="633.0"/>
<line x1="1474.9" y1="645.7" x2="1477.0" y2="635.9"/>
<line x1="1491.9" y1="650.2" x2="1495.0" y2="640.7"/>
<line x1="1508.3" y1="656.5" x2="1512.4" y2="647.4"/>
<line x1="1524.0" y1="664.5" x2="1529.0" y2="655.8"/>
<line x1="1538.7" y1="674.1" x2="1544.6" y2="666.0"/>
<line x1="1552.4" y1="685.2" x2="1559.1" y2="677.7"/>
<line x1="1564.8" y1="697.6" x2="1572.3" y2="690.9"/>
<line x1="1575.9" y1="711.3" x2="1584.0" y2="705.4"/>
<line x1="1585.5" y1="726.0" x2="1594.2" y2="721.0"/>
<line x1="1593.5" y1="741.7" x2="1602.6" y2="737.6"/>
<line x1="1599.8" y1="758.1" x2="1609.3" y2="755.0"/>
<line x1="1604.3" y1="775.1" x2="1614.1" y2="773.0"/>
<line x1="1607.1" y1="792.4" x2="1617.0" y2="791.4"/>
</g>
<g transform="translate(1440,810) scale(0.7130)" filter="url(#softGlow)">
<path d="M -62 -30 v -35 a 62 62 0 0 1 124 0 v 35" fill="none" stroke="url(#ringGrad)" stroke-width="18" stroke-linecap="round"/>
<rect x="-95" y="-30" width="190" height="150" rx="16" fill="#0c0d10" stroke="url(#ringGrad)" stroke-width="6"/>

    <g stroke="#f0c674" stroke-width="4" fill="none" opacity="0.8" stroke-linecap="round" stroke-linejoin="round">
      <path d="M -75 -10 h 30 v 20 h 20"/>
      <path d="M 75 -10 h -30 v 20 h -20"/>
      <path d="M -75 30 h 18 v 30 h 24"/>
      <path d="M 75 30 h -18 v 30 h -24"/>
      <path d="M -75 90 h 40"/>
      <path d="M 75 90 h -40"/>
      <circle cx="-45" cy="-10" r="4" fill="#f0c674"/>
      <circle cx="45" cy="-10" r="4" fill="#f0c674"/>
      <circle cx="-57" cy="60" r="4" fill="#f0c674"/>
      <circle cx="57" cy="60" r="4" fill="#f0c674"/>
    </g>
    <circle cx="0" cy="55" r="16" fill="url(#ringGrad)"/>
    <path d="M -7 68 h 14 l -5 30 h -4 z" fill="url(#ringGrad)"/>

</g>
</svg>